<svg xmlns="http://www.w3.org/2000/svg" viewBox="0 0 598.5 604.05"><defs><style>.cls-1{fill:#fff;}.cls-2{fill:#231f20;}.cls-3{fill:#fcf124;}.cls-4{fill:#070404;}.cls-5{fill:#030202;}.cls-6{fill:#ece81e;}.cls-7{fill:#f7ed38;}.cls-8{fill:none;}</style></defs><title>logo with name</title><g id="Layer_4" data-name="Layer 4"><path d="M451.8,87.37,602.58,345.86,482.26,556.44l-1.11-.63a.16.16,0,0,0,0-.15l-3.7-6.94h0l.92-1.61-.85-.48L592.19,345.91,446.64,96.4l-97.76.44.06-1-3.73-.25.1-1.53q1.45.12,2.94.12A32.17,32.17,0,0,0,368,87.75Z" transform="translate(-4.08 -2.98)"/><path d="M482.26,556.44l-28.14,49.25L154.87,607,125.92,557.4l1.48-.86a.18.18,0,0,0,.2.11l6.47-1.09.52.9.86-.5-.28-.48h0L160,598l288.86-1.3,23.56-41.23h0l-.38.67.86.5.48-.84a.18.18,0,0,0,.17.11H481a.18.18,0,0,0,.17-.11Z" transform="translate(-4.08 -2.98)"/><path d="M481.14,555.66a.16.16,0,0,1,0,.15.18.18,0,0,1-.17.11h-7.4a.18.18,0,0,1-.17-.11l.18-.33h3.79v-6.67l.05-.09h0Z" transform="translate(-4.08 -2.98)"/><path class="cls-1" d="M479.24,457.89s0,0,0,.05l-1.36,2.37Z" transform="translate(-4.08 -2.98)"/><path d="M478.35,547.1l-.92,1.61-.05-.05v-1.83l.12-.21Z" transform="translate(-4.08 -2.98)"/><polygon class="cls-2" points="473.42 543.64 473.3 543.85 473.3 543.81 473.4 543.63 473.42 543.64"/><path class="cls-2" d="M477.43,548.71h0l-.05.09v-.15Z" transform="translate(-4.08 -2.98)"/><polygon points="473.3 545.83 473.3 552.5 469.51 552.5 473.3 545.83"/><path d="M477.38,548.66v.15l-3.79,6.67h-.07l3.6-6.76A.18.18,0,0,1,477.38,548.66Z" transform="translate(-4.08 -2.98)"/><path d="M477.38,546.83v1.83a.18.18,0,0,0-.26.06l-3.6,6.76h-1.07l1.4-2.46Z" transform="translate(-4.08 -2.98)"/><polygon class="cls-2" points="473.3 543.81 473.3 543.85 469.77 550.04 473.3 543.81"/><path class="cls-1" d="M473.94,457.08l-.07.12a.41.41,0,0,1-.1-.09Z" transform="translate(-4.08 -2.98)"/><polygon class="cls-1" points="469.77 550.04 468.37 552.5 468.36 552.5 469.77 550.04"/><path class="cls-1" d="M473.59,555.48l-.18.33a.16.16,0,0,1,0-.15l.1-.18Z" transform="translate(-4.08 -2.98)"/><path d="M473.52,555.48l-.1.18a.16.16,0,0,0,0,.15l-.48.84-.86-.5.38-.67Z" transform="translate(-4.08 -2.98)"/><polygon class="cls-3" points="468.36 552.5 444.8 593.73 155.94 595.03 131.13 552.5 181.06 552.5 181.06 552.78 243.6 552.5 468.36 552.5"/><polygon class="cls-1" points="467.52 458.2 467.24 458.69 466.72 458.2 467.52 458.2"/><path class="cls-1" d="M455.76,357.72a2,2,0,0,1-.29,1.68,2.06,2.06,0,0,0,.28-.6,2,2,0,0,0,0-1.13S455.76,357.7,455.76,357.72Z" transform="translate(-4.08 -2.98)"/><path class="cls-1" d="M455.74,357.67a2,2,0,0,1,0,1.13,2.06,2.06,0,0,1-.28.6,1.64,1.64,0,0,1-.21.25l-.2.19,0,0a1.83,1.83,0,0,1-.26.16l-.24.11-.07,0a2.16,2.16,0,0,1-.62.09,2,2,0,0,1-.53-.07,20.56,20.56,0,0,1-4.34-1.92,20.92,20.92,0,0,1,4.34-1.93,1.89,1.89,0,0,1,1,0l.08,0a1.43,1.43,0,0,1,.31.12.77.77,0,0,1,.18.1,1.19,1.19,0,0,1,.15.09,2.14,2.14,0,0,1,.42.43,1.4,1.4,0,0,1,.16.26.64.64,0,0,1,.08.19.31.31,0,0,1,.05.12A0,0,0,0,1,455.74,357.67Z" transform="translate(-4.08 -2.98)"/><path class="cls-1" d="M455.68,357.52a.31.31,0,0,1,.05.12A.31.31,0,0,0,455.68,357.52Z" transform="translate(-4.08 -2.98)"/><path class="cls-1" d="M455.68,357.52a.64.64,0,0,0-.08-.19A.46.46,0,0,1,455.68,357.52Z" transform="translate(-4.08 -2.98)"/><path class="cls-1" d="M455.6,357.33a1.4,1.4,0,0,0-.16-.26A1,1,0,0,1,455.6,357.33Z" transform="translate(-4.08 -2.98)"/><path class="cls-1" d="M455.26,359.65a1.64,1.64,0,0,0,.21-.25A1.27,1.27,0,0,1,455.26,359.65Z" transform="translate(-4.08 -2.98)"/><path class="cls-1" d="M455.06,359.84l.2-.19A1.21,1.21,0,0,1,455.06,359.84Z" transform="translate(-4.08 -2.98)"/><path class="cls-1" d="M454.76,360a1.83,1.83,0,0,0,.26-.16A1,1,0,0,1,454.76,360Z" transform="translate(-4.08 -2.98)"/><path class="cls-1" d="M455,356.64a1.19,1.19,0,0,0-.15-.09Z" transform="translate(-4.08 -2.98)"/><path class="cls-1" d="M454.87,356.55a.77.77,0,0,0-.18-.1A.81.81,0,0,1,454.87,356.55Z" transform="translate(-4.08 -2.98)"/><path class="cls-1" d="M454.52,360.13l.24-.11A1.28,1.28,0,0,1,454.52,360.13Z" transform="translate(-4.08 -2.98)"/><path class="cls-1" d="M454.69,356.45a1.43,1.43,0,0,0-.31-.12A1.66,1.66,0,0,1,454.69,356.45Z" transform="translate(-4.08 -2.98)"/><path class="cls-1" d="M454.45,360.16l-.07,0c-.51.15-12.3,3.69-14.1,18.52a.24.24,0,0,1,0,.08,1.75,1.75,0,0,0,0-.56,29.64,29.64,0,0,0-2-7.75A24.72,24.72,0,0,1,449,358.26a20.56,20.56,0,0,0,4.34,1.92,2,2,0,0,0,.53.07A2.16,2.16,0,0,0,454.45,360.16Z" transform="translate(-4.08 -2.98)"/><path class="cls-1" d="M454.3,356.31a1.89,1.89,0,0,0-1,0,20.92,20.92,0,0,0-4.34,1.93,24.77,24.77,0,0,1-10.66-12.21,29.83,29.83,0,0,0,2-7.76,1.75,1.75,0,0,0,0-.56.24.24,0,0,1,0,.08C442,352.18,453.15,356,454.3,356.31Z" transform="translate(-4.08 -2.98)"/><path class="cls-1" d="M438.3,346.05A24.77,24.77,0,0,0,449,358.26a24.72,24.72,0,0,0-10.66,12.21,24.84,24.84,0,0,0-10.68-12.21A24.89,24.89,0,0,0,438.3,346.05Z" transform="translate(-4.08 -2.98)"/><path class="cls-1" d="M440.26,337.73a1.75,1.75,0,0,1,0,.56,29.83,29.83,0,0,1-2,7.76,29.43,29.43,0,0,1-2-7.76,1.85,1.85,0,0,1,0-.47h0a1.53,1.53,0,0,1,.08-.37,1.64,1.64,0,0,1,.14-.33,1.57,1.57,0,0,1,.2-.3l.15-.17a1.07,1.07,0,0,1,.16-.14.05.05,0,0,1,0,0,.78.78,0,0,1,.22-.15.88.88,0,0,1,.22-.1.09.09,0,0,1,.07,0,1.13,1.13,0,0,1,.24-.08l.13,0,.2,0a.49.49,0,0,1,.24,0l.2,0,.13,0,.25.08s0,0,0,0l.28.13.08.05.2.15a.34.34,0,0,1,.09.08,1.54,1.54,0,0,1,.17.19s0,0,0,.05a.87.87,0,0,1,.16.23,1.11,1.11,0,0,1,.14.29,1.55,1.55,0,0,1,.07.23A.51.51,0,0,1,440.26,337.73Z" transform="translate(-4.08 -2.98)"/><path class="cls-1" d="M440.28,378.22a1.75,1.75,0,0,1,0,.56.51.51,0,0,1,0,.13,1.55,1.55,0,0,1-.07.23,1.49,1.49,0,0,1-.23.43,1,1,0,0,1-.13.18,1.25,1.25,0,0,1-.23.23,1,1,0,0,1-.2.15l-.08.05a.7.7,0,0,1-.17.09l-.22.09h0a1.55,1.55,0,0,1-.36.08l-.24,0a1.63,1.63,0,0,1-.31,0,1.53,1.53,0,0,1-.29-.07h0a1.19,1.19,0,0,1-.26-.11.24.24,0,0,1-.1-.05.87.87,0,0,1-.23-.16.05.05,0,0,1,0,0,1.07,1.07,0,0,1-.16-.14,1.22,1.22,0,0,1-.15-.17,1.57,1.57,0,0,1-.2-.3,2.33,2.33,0,0,1-.14-.33,1.53,1.53,0,0,1-.08-.37h0a1.85,1.85,0,0,1,0-.47,29.25,29.25,0,0,1,2-7.75A29.64,29.64,0,0,1,440.28,378.22Z" transform="translate(-4.08 -2.98)"/><path class="cls-1" d="M440.24,337.6a1.55,1.55,0,0,0-.07-.23A1.55,1.55,0,0,1,440.24,337.6Z" transform="translate(-4.08 -2.98)"/><path class="cls-1" d="M440.17,379.14a1.55,1.55,0,0,0,.07-.23A1.55,1.55,0,0,1,440.17,379.14Z" transform="translate(-4.08 -2.98)"/><path class="cls-1" d="M440,337.08a.87.87,0,0,0-.16-.23A.87.87,0,0,1,440,337.08Z" transform="translate(-4.08 -2.98)"/><path class="cls-1" d="M439.81,379.75a1,1,0,0,0,.13-.18A.75.75,0,0,1,439.81,379.75Z" transform="translate(-4.08 -2.98)"/><path class="cls-1" d="M439.84,336.8a1.54,1.54,0,0,0-.17-.19A1,1,0,0,1,439.84,336.8Z" transform="translate(-4.08 -2.98)"/><path class="cls-1" d="M439.58,336.53l-.2-.15A1,1,0,0,1,439.58,336.53Z" transform="translate(-4.08 -2.98)"/><path class="cls-1" d="M439.38,380.13a1,1,0,0,0,.2-.15A1,1,0,0,1,439.38,380.13Z" transform="translate(-4.08 -2.98)"/><path class="cls-1" d="M439.3,336.33l-.28-.13A1,1,0,0,1,439.3,336.33Z" transform="translate(-4.08 -2.98)"/><path class="cls-1" d="M439.13,380.27a.7.7,0,0,0,.17-.09Z" transform="translate(-4.08 -2.98)"/><path class="cls-1" d="M438.91,380.36l.22-.09A1.45,1.45,0,0,1,438.91,380.36Z" transform="translate(-4.08 -2.98)"/><path class="cls-1" d="M439,336.19l-.25-.08A1,1,0,0,1,439,336.19Z" transform="translate(-4.08 -2.98)"/><path class="cls-1" d="M438.53,380.44a1.55,1.55,0,0,0,.36-.08A1.35,1.35,0,0,1,438.53,380.44Z" transform="translate(-4.08 -2.98)"/><path class="cls-1" d="M438.61,336.09l-.2,0h.12Z" transform="translate(-4.08 -2.98)"/><path class="cls-1" d="M438.17,336.07l-.2,0,.08,0Z" transform="translate(-4.08 -2.98)"/><path class="cls-1" d="M437.69,380.36a1.53,1.53,0,0,0,.29.07A1,1,0,0,1,437.69,380.36Z" transform="translate(-4.08 -2.98)"/><path class="cls-1" d="M437.84,336.11a1.13,1.13,0,0,0-.24.08A1.13,1.13,0,0,1,437.84,336.11Z" transform="translate(-4.08 -2.98)"/><path class="cls-1" d="M437.42,380.25a1.19,1.19,0,0,0,.26.11A1.19,1.19,0,0,1,437.42,380.25Z" transform="translate(-4.08 -2.98)"/><path class="cls-1" d="M437.53,336.22a.88.88,0,0,0-.22.1A.62.62,0,0,1,437.53,336.22Z" transform="translate(-4.08 -2.98)"/><path class="cls-1" d="M437.09,380a.87.87,0,0,0,.23.16A.87.87,0,0,1,437.09,380Z" transform="translate(-4.08 -2.98)"/><path class="cls-1" d="M437.31,336.32a.78.78,0,0,0-.22.15A1.07,1.07,0,0,1,437.31,336.32Z" transform="translate(-4.08 -2.98)"/><path class="cls-1" d="M437,336.5a1.07,1.07,0,0,0-.16.14Z" transform="translate(-4.08 -2.98)"/><path class="cls-1" d="M436.88,379.87a1.07,1.07,0,0,0,.16.14A1.07,1.07,0,0,1,436.88,379.87Z" transform="translate(-4.08 -2.98)"/><path class="cls-1" d="M436.88,336.64l-.15.17A.8.8,0,0,1,436.88,336.64Z" transform="translate(-4.08 -2.98)"/><path class="cls-1" d="M436.73,379.7a1.22,1.22,0,0,0,.15.17A.8.8,0,0,1,436.73,379.7Z" transform="translate(-4.08 -2.98)"/><path class="cls-1" d="M436.73,336.81a1.57,1.57,0,0,0-.2.3A1.21,1.21,0,0,1,436.73,336.81Z" transform="translate(-4.08 -2.98)"/><path class="cls-1" d="M436.53,379.4a1.57,1.57,0,0,0,.2.3A1.21,1.21,0,0,1,436.53,379.4Z" transform="translate(-4.08 -2.98)"/><path class="cls-1" d="M436.31,338.29a29.43,29.43,0,0,0,2,7.76,24.89,24.89,0,0,1-10.68,12.21,21,21,0,0,0-4.33-1.93,1.89,1.89,0,0,0-1,0c1.16-.36,12.26-4.13,14-18.49A1.85,1.85,0,0,0,436.31,338.29Z" transform="translate(-4.08 -2.98)"/><path class="cls-1" d="M438.3,370.47a29.25,29.25,0,0,0-2,7.75,1.85,1.85,0,0,0,0,.47c-1.76-14.36-12.87-18.14-14-18.49a1.76,1.76,0,0,0,.46.06,2,2,0,0,0,.54-.08,20.61,20.61,0,0,0,4.33-1.92A24.84,24.84,0,0,1,438.3,370.47Z" transform="translate(-4.08 -2.98)"/><path class="cls-1" d="M436.53,337.11a1.64,1.64,0,0,0-.14.33A1.22,1.22,0,0,1,436.53,337.11Z" transform="translate(-4.08 -2.98)"/><path class="cls-1" d="M436.39,379.07a2.33,2.33,0,0,0,.14.33A1.22,1.22,0,0,1,436.39,379.07Z" transform="translate(-4.08 -2.98)"/><path class="cls-1" d="M436.39,337.44a1.53,1.53,0,0,0-.08.37A1.53,1.53,0,0,1,436.39,337.44Z" transform="translate(-4.08 -2.98)"/><path class="cls-1" d="M436.31,378.7a1.53,1.53,0,0,0,.08.37A1.53,1.53,0,0,1,436.31,378.7Z" transform="translate(-4.08 -2.98)"/><path class="cls-1" d="M424.71,233.63a1.8,1.8,0,0,1,0,.89,1.75,1.75,0,0,1-.12.32,1.88,1.88,0,0,1-.14.24l0,0a1.59,1.59,0,0,1-.2.24,1.21,1.21,0,0,1-.24.21,1.24,1.24,0,0,1-.27.17,1.33,1.33,0,0,1-.24.11l-.08,0a2,2,0,0,1-.6.09,2,2,0,0,1-.54-.07,22.69,22.69,0,0,1-4.43-1.93,22.28,22.28,0,0,1,4.43-1.92,2,2,0,0,1,1.06,0h0a1.75,1.75,0,0,1,.32.12l.24.14,0,0a2.31,2.31,0,0,1,.24.2,1.21,1.21,0,0,1,.21.24,1.78,1.78,0,0,1,.17.27,1.08,1.08,0,0,1,.08.19.47.47,0,0,1,.06.15A1.55,1.55,0,0,1,424.71,233.63Z" transform="translate(-4.08 -2.98)"/><path class="cls-1" d="M424.71,233.63a1.55,1.55,0,0,0,0-.23s0,0,0,0A.57.57,0,0,1,424.71,233.63Z" transform="translate(-4.08 -2.98)"/><path class="cls-1" d="M424.55,234.84a1.75,1.75,0,0,0,.12-.32A1.75,1.75,0,0,1,424.55,234.84Z" transform="translate(-4.08 -2.98)"/><path class="cls-1" d="M424.66,233.4a.47.47,0,0,0-.06-.15A.39.39,0,0,1,424.66,233.4Z" transform="translate(-4.08 -2.98)"/><path class="cls-1" d="M424.6,233.25a1.08,1.08,0,0,0-.08-.19A.46.46,0,0,1,424.6,233.25Z" transform="translate(-4.08 -2.98)"/><path class="cls-1" d="M424.41,235.08a1.88,1.88,0,0,0,.14-.24A1.49,1.49,0,0,1,424.41,235.08Z" transform="translate(-4.08 -2.98)"/><path class="cls-1" d="M424.52,233.06a1.78,1.78,0,0,0-.17-.27A1.11,1.11,0,0,1,424.52,233.06Z" transform="translate(-4.08 -2.98)"/><path class="cls-1" d="M424.18,235.37a1.59,1.59,0,0,0,.2-.24A1.5,1.5,0,0,1,424.18,235.37Z" transform="translate(-4.08 -2.98)"/><path class="cls-1" d="M424.35,232.79a1.21,1.21,0,0,0-.21-.24A1.21,1.21,0,0,1,424.35,232.79Z" transform="translate(-4.08 -2.98)"/><path class="cls-1" d="M423.94,235.58a1.21,1.21,0,0,0,.24-.21A1.21,1.21,0,0,1,423.94,235.58Z" transform="translate(-4.08 -2.98)"/><path class="cls-1" d="M424.14,232.55a2.31,2.31,0,0,0-.24-.2A1.16,1.16,0,0,1,424.14,232.55Z" transform="translate(-4.08 -2.98)"/><path class="cls-1" d="M423.67,235.75a1.24,1.24,0,0,0,.27-.17A1,1,0,0,1,423.67,235.75Z" transform="translate(-4.08 -2.98)"/><path class="cls-1" d="M423.85,232.32l-.24-.14A1,1,0,0,1,423.85,232.32Z" transform="translate(-4.08 -2.98)"/><path class="cls-1" d="M423.43,235.86a1.33,1.33,0,0,0,.24-.11A1.28,1.28,0,0,1,423.43,235.86Z" transform="translate(-4.08 -2.98)"/><path class="cls-1" d="M423.61,232.18a1.75,1.75,0,0,0-.32-.12A1,1,0,0,1,423.61,232.18Z" transform="translate(-4.08 -2.98)"/><path class="cls-1" d="M423.29,356.33a21,21,0,0,1,4.33,1.93,20.61,20.61,0,0,1-4.33,1.92,2,2,0,0,1-.54.08,1.76,1.76,0,0,1-.46-.06l-.08,0a1.75,1.75,0,0,1-.32-.12l-.24-.14,0,0a2.31,2.31,0,0,1-.24-.2,1.21,1.21,0,0,1-.21-.24,1.78,1.78,0,0,1-.17-.27,1.08,1.08,0,0,1-.08-.19.47.47,0,0,1-.06-.15c0-.08,0-.16,0-.23a2.2,2.2,0,0,1,0-.36,1.55,1.55,0,0,1,0-.31,1.89,1.89,0,0,1,.05-.23h0l.09-.24a.78.78,0,0,1,.11-.2,1.06,1.06,0,0,1,.12-.2,2.25,2.25,0,0,1,.21-.24,2.31,2.31,0,0,1,.24-.2l0,0,.24-.14a1.75,1.75,0,0,1,.32-.12l.08,0A1.89,1.89,0,0,1,423.29,356.33Z" transform="translate(-4.08 -2.98)"/><path class="cls-1" d="M423.35,235.89l-.06,0a21.82,21.82,0,0,0-7.47,4.26c-3.68,3.14-7.56,8.37-8.58,16.8a.19.19,0,0,1,0,.07,1.68,1.68,0,0,0,0-.55,33.24,33.24,0,0,0-2-8.1A27.75,27.75,0,0,1,417.78,234a22.69,22.69,0,0,0,4.43,1.93,2,2,0,0,0,.54.07A2,2,0,0,0,423.35,235.89Z" transform="translate(-4.08 -2.98)"/><path class="cls-1" d="M423.27,232.05a2,2,0,0,0-1.06,0,22.28,22.28,0,0,0-4.43,1.92,27.75,27.75,0,0,1-12.53-14.41,33.24,33.24,0,0,0,2-8.1,1.75,1.75,0,0,0,0-.56.24.24,0,0,1,0,.08C409.27,227.71,422.46,231.81,423.27,232.05Z" transform="translate(-4.08 -2.98)"/><path class="cls-1" d="M422.21,356.33a1.75,1.75,0,0,0-.32.12A1.75,1.75,0,0,1,422.21,356.33Z" transform="translate(-4.08 -2.98)"/><path class="cls-1" d="M421.89,360.06a1.75,1.75,0,0,0,.32.12A1.75,1.75,0,0,1,421.89,360.06Z" transform="translate(-4.08 -2.98)"/><path class="cls-1" d="M421.89,356.45l-.24.14A1,1,0,0,1,421.89,356.45Z" transform="translate(-4.08 -2.98)"/><path class="cls-1" d="M421.65,359.92l.24.14A1,1,0,0,1,421.65,359.92Z" transform="translate(-4.08 -2.98)"/><path class="cls-1" d="M421.6,356.62a2.31,2.31,0,0,0-.24.2A2.12,2.12,0,0,1,421.6,356.62Z" transform="translate(-4.08 -2.98)"/><path class="cls-1" d="M421.36,359.69a2.31,2.31,0,0,0,.24.2A1.16,1.16,0,0,1,421.36,359.69Z" transform="translate(-4.08 -2.98)"/><path class="cls-1" d="M421.36,356.82a2.25,2.25,0,0,0-.21.24A1.21,1.21,0,0,1,421.36,356.82Z" transform="translate(-4.08 -2.98)"/><path class="cls-1" d="M421.15,359.45a1.21,1.21,0,0,0,.21.24A1.21,1.21,0,0,1,421.15,359.45Z" transform="translate(-4.08 -2.98)"/><path class="cls-3" d="M187.08,553.49l232.52-1,1.56,1.7v.54l-173.48.78H185.14l0-2Z" transform="translate(-4.08 -2.98)"/><path class="cls-1" d="M421.15,357.06a1.06,1.06,0,0,0-.12.2A.82.82,0,0,1,421.15,357.06Z" transform="translate(-4.08 -2.98)"/><path class="cls-1" d="M421,359.18a1.78,1.78,0,0,0,.17.27A1.11,1.11,0,0,1,421,359.18Z" transform="translate(-4.08 -2.98)"/><path class="cls-1" d="M420.9,359a1.08,1.08,0,0,0,.08.19A.46.46,0,0,1,420.9,359Z" transform="translate(-4.08 -2.98)"/><path class="cls-1" d="M420.92,357.46l-.09.24Q420.88,357.57,420.92,357.46Z" transform="translate(-4.08 -2.98)"/><path class="cls-1" d="M420.84,358.84a.47.47,0,0,0,.06.15A.47.47,0,0,1,420.84,358.84Z" transform="translate(-4.08 -2.98)"/><path class="cls-1" d="M420.84,358.84s0,0,0,0a.57.57,0,0,1,0-.18C420.8,358.68,420.82,358.76,420.84,358.84Z" transform="translate(-4.08 -2.98)"/><path class="cls-1" d="M420.78,357.94a1.55,1.55,0,0,0,0,.31A1.63,1.63,0,0,1,420.78,357.94Z" transform="translate(-4.08 -2.98)"/><path class="cls-3" d="M419.6,552.46l-232.52,1c.23-.24.46-.49.68-.74l231.17-1Z" transform="translate(-4.08 -2.98)"/><path class="cls-3" d="M418.93,551.71l-231.17,1c1.28-1.39,2.53-2.82,3.77-4.27l223.71-1Q417.05,549.63,418.93,551.71Z" transform="translate(-4.08 -2.98)"/><path class="cls-3" d="M415.24,547.47l-223.71,1c20.48-23.94,36.34-54.64,48.62-87.3H367.47C379.58,493.39,395.17,523.68,415.24,547.47Z" transform="translate(-4.08 -2.98)"/><ellipse class="cls-1" cx="401.17" cy="231" rx="12.53" ry="14.41"/><path class="cls-1" d="M407.22,210.91a1.75,1.75,0,0,1,0,.56,33.24,33.24,0,0,1-2,8.1,33.24,33.24,0,0,1-2-8.1,1.75,1.75,0,0,1,0-.56.51.51,0,0,1,0-.13,2.25,2.25,0,0,1,.08-.24s0,0,0,0a1.11,1.11,0,0,1,.14-.29,1.15,1.15,0,0,1,.19-.26,1.42,1.42,0,0,1,.36-.33.94.94,0,0,1,.18-.12l.09,0a1.39,1.39,0,0,1,.28-.12,1.53,1.53,0,0,1,.37-.08,1.93,1.93,0,0,1,.48,0,1.55,1.55,0,0,1,.36.08h0l.22.09a.91.91,0,0,1,.17.09l.08.05a1.49,1.49,0,0,1,.2.15.34.34,0,0,1,.09.08,1.54,1.54,0,0,1,.17.19s0,0,0,.05a.87.87,0,0,1,.16.23,1.11,1.11,0,0,1,.14.29,1.55,1.55,0,0,1,.07.23A.51.51,0,0,1,407.22,210.91Z" transform="translate(-4.08 -2.98)"/><path class="cls-1" d="M407.24,256.49a1.68,1.68,0,0,1,0,.55.41.41,0,0,1,0,.16,1.29,1.29,0,0,1-.06.21.3.3,0,0,1,0,.1,2,2,0,0,1-.13.25h0a1.31,1.31,0,0,1-.2.28.77.77,0,0,1-.18.18,1.31,1.31,0,0,1-.28.2h0l-.25.13-.1,0-.21.06a.32.32,0,0,1-.14,0h0a.62.62,0,0,1-.19,0h-.28l-.15,0h0a.28.28,0,0,1-.13,0l-.21-.06-.1,0a.94.94,0,0,1-.24-.13s0,0,0,0a1.31,1.31,0,0,1-.28-.2.77.77,0,0,1-.18-.18,1.31,1.31,0,0,1-.2-.28h0a1.15,1.15,0,0,1-.12-.25.24.24,0,0,1-.05-.1,1.29,1.29,0,0,1-.06-.21.41.41,0,0,1,0-.16,1.68,1.68,0,0,1,0-.55,33.24,33.24,0,0,1,2-8.1A33.24,33.24,0,0,1,407.24,256.49Z" transform="translate(-4.08 -2.98)"/><path class="cls-1" d="M407.19,257.2a.41.41,0,0,0,0-.16A.45.45,0,0,1,407.19,257.2Z" transform="translate(-4.08 -2.98)"/><path class="cls-1" d="M407.2,210.78a1.55,1.55,0,0,0-.07-.23A1.55,1.55,0,0,1,407.2,210.78Z" transform="translate(-4.08 -2.98)"/><path class="cls-1" d="M407.13,257.41a1.29,1.29,0,0,0,.06-.21A.83.83,0,0,1,407.13,257.41Z" transform="translate(-4.08 -2.98)"/><path class="cls-1" d="M407,257.76a2,2,0,0,0,.13-.25A1.19,1.19,0,0,1,407,257.76Z" transform="translate(-4.08 -2.98)"/><path class="cls-1" d="M407,210.26a.87.87,0,0,0-.16-.23A.87.87,0,0,1,407,210.26Z" transform="translate(-4.08 -2.98)"/><path class="cls-1" d="M406.75,258.05a1.31,1.31,0,0,0,.2-.28A1.31,1.31,0,0,1,406.75,258.05Z" transform="translate(-4.08 -2.98)"/><path class="cls-1" d="M406.8,210a1.54,1.54,0,0,0-.17-.19A1,1,0,0,1,406.8,210Z" transform="translate(-4.08 -2.98)"/><path class="cls-1" d="M406.29,258.43a1.31,1.31,0,0,0,.28-.2A1.31,1.31,0,0,1,406.29,258.43Z" transform="translate(-4.08 -2.98)"/><path class="cls-1" d="M406.54,209.71a1.49,1.49,0,0,0-.2-.15A1,1,0,0,1,406.54,209.71Z" transform="translate(-4.08 -2.98)"/><path class="cls-1" d="M406,258.57l.25-.13A1.19,1.19,0,0,1,406,258.57Z" transform="translate(-4.08 -2.98)"/><path class="cls-1" d="M406.26,209.51a.91.91,0,0,0-.17-.09Z" transform="translate(-4.08 -2.98)"/><path class="cls-1" d="M406.09,209.42l-.22-.09A.85.85,0,0,1,406.09,209.42Z" transform="translate(-4.08 -2.98)"/><path class="cls-1" d="M405.72,258.67l.21-.06Z" transform="translate(-4.08 -2.98)"/><path class="cls-1" d="M405.85,209.33a1.55,1.55,0,0,0-.36-.08A1.55,1.55,0,0,1,405.85,209.33Z" transform="translate(-4.08 -2.98)"/><path class="cls-1" d="M405.58,258.7a.32.32,0,0,0,.14,0A.35.35,0,0,1,405.58,258.7Z" transform="translate(-4.08 -2.98)"/><path class="cls-1" d="M405.56,258.7l-.07,0h-.12A.62.62,0,0,0,405.56,258.7Z" transform="translate(-4.08 -2.98)"/><path class="cls-1" d="M405.09,258.72H405l-.07,0Z" transform="translate(-4.08 -2.98)"/><path class="cls-1" d="M405,209.25a1.53,1.53,0,0,0-.37.08A1.53,1.53,0,0,1,405,209.25Z" transform="translate(-4.08 -2.98)"/><path class="cls-1" d="M404.78,258.67a.28.28,0,0,0,.13,0Z" transform="translate(-4.08 -2.98)"/><path class="cls-1" d="M404.57,258.61l.21.06Z" transform="translate(-4.08 -2.98)"/><path class="cls-1" d="M404.64,209.33a1.39,1.39,0,0,0-.28.12A1,1,0,0,1,404.64,209.33Z" transform="translate(-4.08 -2.98)"/><path class="cls-1" d="M404.23,258.44a.94.94,0,0,0,.24.13A.94.94,0,0,1,404.23,258.44Z" transform="translate(-4.08 -2.98)"/><path class="cls-1" d="M404.27,209.49a.94.94,0,0,0-.18.12A.94.94,0,0,1,404.27,209.49Z" transform="translate(-4.08 -2.98)"/><path class="cls-1" d="M403.93,258.23a1.31,1.31,0,0,0,.28.2A1.31,1.31,0,0,1,403.93,258.23Z" transform="translate(-4.08 -2.98)"/><path class="cls-1" d="M403.55,257.77a1.31,1.31,0,0,0,.2.28A1.31,1.31,0,0,1,403.55,257.77Z" transform="translate(-4.08 -2.98)"/><path class="cls-1" d="M403.73,209.94a1.15,1.15,0,0,0-.19.26A1.57,1.57,0,0,1,403.73,209.94Z" transform="translate(-4.08 -2.98)"/><path class="cls-1" d="M403.54,210.2a1.11,1.11,0,0,0-.14.29A1.11,1.11,0,0,1,403.54,210.2Z" transform="translate(-4.08 -2.98)"/><path class="cls-1" d="M403.42,257.51a1.15,1.15,0,0,0,.12.25A.82.82,0,0,1,403.42,257.51Z" transform="translate(-4.08 -2.98)"/><path class="cls-1" d="M403.26,211.47a33.24,33.24,0,0,0,2,8.1A27.75,27.75,0,0,1,392.72,234a22.28,22.28,0,0,0-4.43-1.92,2,2,0,0,0-1.06,0,21.71,21.71,0,0,0,7.45-4.26c3.68-3.13,7.56-8.36,8.58-16.8a.24.24,0,0,1,0-.08A1.75,1.75,0,0,0,403.26,211.47Z" transform="translate(-4.08 -2.98)"/><path class="cls-1" d="M405.25,248.39a33.24,33.24,0,0,0-2,8.1,1.68,1.68,0,0,0,0,.55.19.19,0,0,1,0-.07c-2.05-16.87-15.48-20.9-16.05-21.06l0,0a2,2,0,0,0,.59.09,2,2,0,0,0,.54-.07,22.69,22.69,0,0,0,4.43-1.93A27.75,27.75,0,0,1,405.25,248.39Z" transform="translate(-4.08 -2.98)"/><path class="cls-1" d="M403.38,210.54a2.25,2.25,0,0,0-.08.24A1.13,1.13,0,0,1,403.38,210.54Z" transform="translate(-4.08 -2.98)"/><path class="cls-1" d="M403.31,257.2a1.29,1.29,0,0,0,.06.21A.83.83,0,0,1,403.31,257.2Z" transform="translate(-4.08 -2.98)"/><path class="cls-1" d="M403.28,257a.41.41,0,0,0,0,.16A.45.45,0,0,1,403.28,257Z" transform="translate(-4.08 -2.98)"/><path class="cls-1" d="M388.29,232.06a22.28,22.28,0,0,1,4.43,1.92,22.69,22.69,0,0,1-4.43,1.93,2,2,0,0,1-.54.07,2,2,0,0,1-.59-.09.47.47,0,0,1-.15-.06l-.17-.07-.24-.15a1.5,1.5,0,0,1-.24-.2,1.21,1.21,0,0,1-.21-.24,1.78,1.78,0,0,1-.17-.27,1.33,1.33,0,0,1-.11-.24.16.16,0,0,0,0-.08,2.3,2.3,0,0,1-.06-.28,1.55,1.55,0,0,1,0-.31h0a1.55,1.55,0,0,1,0-.31,1.89,1.89,0,0,1,.05-.23h0l.09-.24a.78.78,0,0,1,.11-.2,1.06,1.06,0,0,1,.12-.2,2.25,2.25,0,0,1,.21-.24,2.31,2.31,0,0,1,.24-.2l0,0,.24-.14a1.75,1.75,0,0,1,.32-.12h0A2,2,0,0,1,388.29,232.06Z" transform="translate(-4.08 -2.98)"/><path class="cls-1" d="M387.21,232.06a1.75,1.75,0,0,0-.32.12A1.75,1.75,0,0,1,387.21,232.06Z" transform="translate(-4.08 -2.98)"/><path class="cls-1" d="M387,235.83a.47.47,0,0,0,.15.06A.47.47,0,0,1,387,235.83Z" transform="translate(-4.08 -2.98)"/><path class="cls-1" d="M386.84,235.76l.17.07A.61.61,0,0,1,386.84,235.76Z" transform="translate(-4.08 -2.98)"/><path class="cls-1" d="M386.89,232.18l-.24.14A1,1,0,0,1,386.89,232.18Z" transform="translate(-4.08 -2.98)"/><path class="cls-1" d="M386.6,232.35a2.31,2.31,0,0,0-.24.2A2.12,2.12,0,0,1,386.6,232.35Z" transform="translate(-4.08 -2.98)"/><path class="cls-1" d="M386.36,235.41a1.5,1.5,0,0,0,.24.2A1.16,1.16,0,0,1,386.36,235.41Z" transform="translate(-4.08 -2.98)"/><path class="cls-1" d="M386.36,232.55a2.25,2.25,0,0,0-.21.24A1.21,1.21,0,0,1,386.36,232.55Z" transform="translate(-4.08 -2.98)"/><path class="cls-1" d="M386.15,235.17a1.21,1.21,0,0,0,.21.24A1.21,1.21,0,0,1,386.15,235.17Z" transform="translate(-4.08 -2.98)"/><path class="cls-1" d="M386.15,232.79a1.06,1.06,0,0,0-.12.2A.82.82,0,0,1,386.15,232.79Z" transform="translate(-4.08 -2.98)"/><path class="cls-1" d="M386,234.9a1.78,1.78,0,0,0,.17.27A1,1,0,0,1,386,234.9Z" transform="translate(-4.08 -2.98)"/><path class="cls-1" d="M385.87,234.66a1.33,1.33,0,0,0,.11.24A1.28,1.28,0,0,1,385.87,234.66Z" transform="translate(-4.08 -2.98)"/><path class="cls-1" d="M385.92,233.19l-.09.24Q385.88,233.3,385.92,233.19Z" transform="translate(-4.08 -2.98)"/><path class="cls-1" d="M385.84,234.58s0,0,0-.06a.93.93,0,0,1,0-.22A2.3,2.3,0,0,0,385.84,234.58Z" transform="translate(-4.08 -2.98)"/><path class="cls-1" d="M385.78,233.67a1.55,1.55,0,0,0,0,.31A1.63,1.63,0,0,1,385.78,233.67Z" transform="translate(-4.08 -2.98)"/><path class="cls-1" d="M385.75,234a1.55,1.55,0,0,0,0,.31A1.71,1.71,0,0,1,385.75,234Z" transform="translate(-4.08 -2.98)"/><path d="M348.25,47C364.1,47,377,57.58,377,70.61c0,6.74-3.46,12.84-9,17.14l-10.61,0C366,85,372,78.34,372,70.61,372,60.34,361.35,52,348.25,52a29.85,29.85,0,0,0-6.35.68l.3-.16L341,50.3h2.5v-3A35,35,0,0,1,348.25,47Z" transform="translate(-4.08 -2.98)"/><path d="M357.39,87.79l10.61,0a32.17,32.17,0,0,1-19.75,6.48q-1.49,0-2.94-.12a32.72,32.72,0,0,1-12.15-3.41l1.62-2.81,4.59,0a29.7,29.7,0,0,0,18-.08Z" transform="translate(-4.08 -2.98)"/><path class="cls-3" d="M367.47,461.18H240.15c35.18-93.53,41.1-203.23,42.5-217,1.94-19,21.16-24,21.16-24s19.23,5,21.17,24C326.38,258,332.3,367.65,367.47,461.18Z" transform="translate(-4.08 -2.98)"/><path class="cls-1" d="M348.25,52C361.35,52,372,60.34,372,70.61c0,7.73-6,14.38-14.61,17.18l-18,.08a25,25,0,0,1-3.84-1.55L332.9,84.8l-.38-.25,1.15.66,3.06-5.3-8.64-5L342,67.43,335.8,56l6.1-3.29A29.85,29.85,0,0,1,348.25,52Z" transform="translate(-4.08 -2.98)"/><path class="cls-1" d="M339.37,87.87l18-.08a29.7,29.7,0,0,1-18,.08Z" transform="translate(-4.08 -2.98)"/><polygon class="cls-1" points="346.28 131.33 342.07 134 342.25 131.33 346.28 131.33"/><polygon class="cls-1" points="344.86 92.91 344.8 93.86 339.78 93.88 339.87 92.58 341.13 92.66 344.86 92.91"/><polygon points="344.8 93.86 343.48 113.19 341.09 113.03 341.09 110.03 338.69 110.03 339.08 104.25 340.94 104.25 340.94 101.25 339.28 101.25 339.78 93.88 344.8 93.86"/><polygon points="343.48 113.19 342.94 121.17 340.55 121.01 340.54 118.01 338.14 118.02 338.48 113.03 341.09 113.03 343.48 113.19"/><polygon points="342.94 121.17 342.29 130.81 337.29 130.84 337.82 122.96 337.81 122.96 337.94 121.02 340.55 121.01 342.94 121.17"/><polygon points="342.29 130.81 342.25 131.33 337.26 131.33 337.29 130.84 342.29 130.81"/><path d="M346.33,134.31l-.18,2.67-.26.17c0-.3.07-.47.07-.49l-4.75-.68,0-.66h0v-.1h0l.06-.89Z" transform="translate(-4.08 -2.98)"/><path class="cls-1" d="M346.15,137l-.06.91-.28,0c0-.29.06-.53.08-.72Z" transform="translate(-4.08 -2.98)"/><path d="M341.21,136l4.75.68s0,.19-.07.49l-1,.66-3.76-.26Z" transform="translate(-4.08 -2.98)"/><path class="cls-1" d="M344.86,137.81l1-.66c0,.19-.05.43-.08.72Z" transform="translate(-4.08 -2.98)"/><path class="cls-1" d="M344.86,137.81l.95.06c0,.27-.07.58-.1.93h-2.43Z" transform="translate(-4.08 -2.98)"/><path class="cls-3" d="M345.31,94.11l-.1,1.53L344,95.56l-.09,1.3-78.22.35-.26-3.76a31.48,31.48,0,0,0,7.78-2.75v0l.49-.28c.64-.34,1.27-.7,1.87-1.08l2.09-1.21,50.69-.23,2.48,1.44c.6.38,1.23.74,1.87,1.08l.49.28v0A32.72,32.72,0,0,0,345.31,94.11Z" transform="translate(-4.08 -2.98)"/><polygon class="cls-4" points="341.09 110.03 341.09 113.03 338.48 113.03 338.69 110.03 341.09 110.03"/><polygon class="cls-4" points="340.94 101.25 340.94 104.25 339.08 104.25 339.28 101.25 340.94 101.25"/><path d="M344.86,137.81l-1.58,1h-2.6c.19-1.82.32-2.8.33-2.87l.2,0-.11,1.57Z" transform="translate(-4.08 -2.98)"/><polygon class="cls-4" points="340.54 118.01 340.55 121.01 337.94 121.02 338.14 118.02 340.54 118.01"/><polygon class="cls-3" points="339.78 93.88 339.28 101.25 262.03 101.25 261.56 94.23 339.78 93.88"/><path d="M343.52,47.3v3H341l-1.19-2.19h0l.3-.16A33.3,33.3,0,0,1,343.52,47.3Z" transform="translate(-4.08 -2.98)"/><path class="cls-3" d="M343.52,31.32v16a33.3,33.3,0,0,0-3.39.64l.4-.21-2-3.74V32.64l1.05.72,0,0a2.39,2.39,0,0,0,1.44.44,2.37,2.37,0,0,0,2.42-2.5Z" transform="translate(-4.08 -2.98)"/><path class="cls-3" d="M343.46,31.32H341l1.42-2.07-.28-.19A2.45,2.45,0,0,1,343.46,31.32Z" transform="translate(-4.08 -2.98)"/><path class="cls-3" d="M341,31.32h2.45a2.37,2.37,0,0,1-2.42,2.5,2.39,2.39,0,0,1-1.44-.44Z" transform="translate(-4.08 -2.98)"/><polygon class="cls-3" points="339.28 101.25 339.08 104.25 262.24 104.25 262.03 101.25 339.28 101.25"/><path d="M343.28,138.81l-2.78,1.76c.06-.65.12-1.24.18-1.75Z" transform="translate(-4.08 -2.98)"/><polygon points="339.08 104.25 338.69 110.03 262.63 110.03 262.24 104.25 339.08 104.25"/><polygon class="cls-5" points="338.69 110.03 338.48 113.03 262.83 113.03 262.63 110.03 338.69 110.03"/><polygon class="cls-3" points="338.48 113.03 338.14 118.02 263.19 118.24 262.83 113.03 338.48 113.03"/><path class="cls-3" d="M342.43,29.25,341,31.32h-2.39a2.37,2.37,0,0,1,2.42-2.5,2.67,2.67,0,0,1,1.06.21l0,0Z" transform="translate(-4.08 -2.98)"/><polygon class="cls-3" points="338.14 118.02 337.94 121.02 269.34 121.22 263.39 121.24 263.19 118.24 338.14 118.02"/><path d="M341,50.3l1.18,2.2-.3.16a24.81,24.81,0,0,0-12.57,6.7l-8.7,4.69a22.51,22.51,0,0,1,5.62-8.63l12.27-6.61V50.3Z" transform="translate(-4.08 -2.98)"/><path class="cls-3" d="M305.09,3.65,342.1,29a2.67,2.67,0,0,0-1.06-.21,2.37,2.37,0,0,0-2.42,2.5h-.1v1.32L303.33,8.51l1.05-.72A2.64,2.64,0,0,0,305.09,3.65Z" transform="translate(-4.08 -2.98)"/><polygon points="337.94 121.02 337.81 122.96 332.02 122.57 331.58 128.99 328.69 130.82 328.69 126.61 273.09 126.61 273.09 131.12 272.88 131.12 269.77 129.15 269.35 123 269.34 121.22 337.94 121.02"/><path class="cls-1" d="M335.8,56,342,67.43l-13.9,7.49-3.4-2a14.06,14.06,0,0,1-.19-2.35,16.11,16.11,0,0,1,4.67-11.09Z" transform="translate(-4.08 -2.98)"/><polygon points="337.82 122.96 337.29 130.84 337.27 130.84 337.81 122.96 337.82 122.96"/><path d="M341.9,52.66,335.8,56l0-.06-6.44,3.47A24.81,24.81,0,0,1,341.9,52.66Z" transform="translate(-4.08 -2.98)"/><polygon points="337.81 122.96 337.27 130.84 336.23 130.84 334.05 127.42 331.58 128.99 332.02 122.57 337.81 122.96"/><polygon class="cls-1" points="337.29 130.84 337.26 131.33 337.24 131.33 337.27 130.84 337.29 130.84"/><polygon points="337.27 130.84 337.24 131.33 336.54 131.33 336.23 130.84 337.27 130.84"/><polygon class="cls-1" points="337.26 131.33 337.2 132.22 337.18 132.22 337.24 131.33 337.26 131.33"/><polygon class="cls-3" points="337.24 131.33 337.18 132.22 337.11 132.21 336.54 131.33 337.24 131.33"/><polygon class="cls-1" points="337.17 132.32 337.18 132.33 337.17 132.34 337.17 132.32"/><polygon class="cls-2" points="337.18 132.22 337.17 132.32 337.11 132.21 337.18 132.22"/><polygon class="cls-3" points="337.11 132.21 337.17 132.32 337.17 132.34 332.46 135.33 328.69 135.33 328.69 131.33 331.42 131.33 331.39 131.82 337.11 132.21"/><path d="M341.25,135.32l0,.66-.2,0c0,.07-.14,1.05-.33,2.87l-4.91,0,.84-.53h-.07Z" transform="translate(-4.08 -2.98)"/><polygon class="cls-3" points="337.11 132.21 331.39 131.82 331.42 131.33 336.54 131.33 337.11 132.21"/><polygon points="336.94 47.32 334.44 47.32 334.44 45.83 335.75 45.13 336.94 47.32"/><path class="cls-3" d="M341,31.32l-1.41,2.06,0,0a2.55,2.55,0,0,1-.95-2Z" transform="translate(-4.08 -2.98)"/><path d="M335.77,138.84l4.91,0c-.06.51-.12,1.1-.18,1.75L324.15,151l11.68-7.81H329Z" transform="translate(-4.08 -2.98)"/><polygon points="336.23 130.84 336.54 131.33 331.42 131.33 331.46 130.86 336.23 130.84"/><path class="cls-3" d="M338.52,44l2,3.74-.4.21c-.54.13-1.08.28-1.61.44Z" transform="translate(-4.08 -2.98)"/><polygon points="334.05 127.42 336.23 130.84 331.46 130.86 331.58 128.99 334.05 127.42"/><path class="cls-3" d="M340.13,47.94l-.3.16-1.31.71v-.43C339.05,48.22,339.59,48.07,340.13,47.94Z" transform="translate(-4.08 -2.98)"/><polygon class="cls-2" points="335.75 45.12 335.75 45.13 334.44 45.83 335.75 45.12"/><path class="cls-3" d="M339.57,33.36l-1.05-.72V31.32h.1A2.55,2.55,0,0,0,339.57,33.36Z" transform="translate(-4.08 -2.98)"/><path d="M339.37,87.87l-4.59,0,.87-1.5-.12-.07A25,25,0,0,0,339.37,87.87Z" transform="translate(-4.08 -2.98)"/><path class="cls-3" d="M338.52,48.38v.43l-12.27,6.61A29.42,29.42,0,0,1,338.52,48.38Z" transform="translate(-4.08 -2.98)"/><path class="cls-3" d="M338.52,44v4.39a29.42,29.42,0,0,0-12.27,7l-.28.15-2.83-5.25,14.56-7.85Z" transform="translate(-4.08 -2.98)"/><polygon class="cls-3" points="334.44 29.66 334.44 41.01 333.62 39.49 319.06 47.34 321.89 52.59 299.08 64.89 276.22 52.56 279.03 47.34 264.48 39.49 264.07 40.25 264.07 29.65 299.25 5.53 334.44 29.66"/><path class="cls-1" d="M336.73,79.91l-3.06,5.3-1.15-.66a18.91,18.91,0,0,1-6.9-8.3l2.47-1.33Z" transform="translate(-4.08 -2.98)"/><polygon class="cls-3" points="332.53 135.33 331.69 135.86 331.62 135.86 332.46 135.33 332.53 135.33"/><polygon class="cls-3" points="332.46 135.33 331.62 135.86 328.81 135.87 328.69 135.69 328.69 135.33 332.46 135.33"/><polygon class="cls-5" points="331.75 140.17 320.07 147.98 300.56 160.37 281 147.95 269.36 140.17 276.21 140.17 283.08 144.53 300.56 156.21 317.85 144.65 324.91 140.17 331.75 140.17"/><path d="M335.77,55.89l0,.06-6.63,3.57.16-.16Z" transform="translate(-4.08 -2.98)"/><polygon class="cls-3" points="331.69 135.86 324.91 140.17 276.21 140.17 269.86 136.14 269.92 136.14 272.35 137.68 273.09 136.52 273.09 136.89 328.69 136.89 328.69 135.87 328.81 135.87 329.61 137.14 331.62 135.86 331.69 135.86"/><polygon class="cls-3" points="331.62 135.86 329.61 137.14 328.81 135.87 331.62 135.86"/><polygon points="331.58 128.99 331.46 130.86 328.69 130.87 328.69 130.82 331.58 128.99"/><path d="M335.65,86.39l-.87,1.5-6,0a23.52,23.52,0,0,1-7.84-10.06l12,6.94a22,22,0,0,0,2.63,1.52Z" transform="translate(-4.08 -2.98)"/><polygon points="331.46 130.86 331.42 131.33 328.69 131.33 328.69 130.87 331.46 130.86"/><path class="cls-1" d="M332.9,84.8l2.63,1.52A22,22,0,0,1,332.9,84.8Z" transform="translate(-4.08 -2.98)"/><path d="M334.78,87.89l-1.62,2.81-.5-.26-1.87-1.08c-.72-.45-1.4-.93-2.06-1.44Z" transform="translate(-4.08 -2.98)"/><path class="cls-2" d="M333.16,90.7v0l-.49-.28Z" transform="translate(-4.08 -2.98)"/><path class="cls-1" d="M332.9,84.8l-12-6.94a.08.08,0,0,1,0,0l11.65,6.74Z" transform="translate(-4.08 -2.98)"/><polygon class="cls-2" points="328.81 135.87 328.69 135.87 328.69 135.69 328.81 135.87"/><polygon class="cls-3" points="328.69 135.87 328.69 136.89 273.09 136.89 273.09 136.52 273.34 136.12 328.69 135.87"/><polygon class="cls-3" points="328.69 135.69 328.69 135.87 273.34 136.12 273.84 135.33 328.46 135.33 328.69 135.69"/><polygon class="cls-1" points="328.69 135.33 328.69 135.69 328.46 135.33 328.69 135.33"/><polygon class="cls-3" points="328.69 131.33 328.69 135.33 328.46 135.33 326.49 132.22 327.89 131.33 328.69 131.33"/><polygon points="328.69 130.87 328.69 131.33 327.89 131.33 328.61 130.87 328.69 130.87"/><polygon class="cls-1" points="328.69 130.82 328.69 130.87 328.61 130.87 328.69 130.82"/><polygon points="328.69 126.61 328.69 130.82 328.61 130.87 273.09 131.12 273.09 126.61 328.69 126.61"/><polygon points="328.61 130.87 327.89 131.33 273.2 131.33 273.09 131.26 273.09 131.12 328.61 130.87"/><path class="cls-2" d="M330.79,89.36l1.87,1.08C332,90.1,331.39,89.74,330.79,89.36Z" transform="translate(-4.08 -2.98)"/><polygon class="cls-3" points="326.49 132.22 328.46 135.33 273.84 135.33 275.47 132.77 273.2 131.33 327.89 131.33 326.49 132.22"/><path class="cls-1" d="M332.52,84.55l-11.65-6.74a19.29,19.29,0,0,1-1.29-5.59l3,5.65,3-1.62A18.91,18.91,0,0,0,332.52,84.55Z" transform="translate(-4.08 -2.98)"/><path d="M330.79,89.36l-2.48-1.44h.42C329.39,88.43,330.07,88.91,330.79,89.36Z" transform="translate(-4.08 -2.98)"/><path class="cls-1" d="M320.63,64.05l8.7-4.69-.16.16-8.57,4.62Z" transform="translate(-4.08 -2.98)"/><path class="cls-1" d="M320.6,64.14l8.57-4.62a16.11,16.11,0,0,0-4.67,11.09,14.06,14.06,0,0,0,.19,2.35l-5.17-3A19.41,19.41,0,0,1,320.6,64.14Z" transform="translate(-4.08 -2.98)"/><polygon class="cls-5" points="324.91 140.17 317.85 144.65 318.57 144.17 282.54 144.17 283.08 144.53 276.21 140.17 324.91 140.17"/><path d="M328.73,87.92h-.42L303.16,73.39l1.08-.62-1.08-1.87.17-.3,1.19,2.21,3.94-2.13,12.43,7.18A23.52,23.52,0,0,0,328.73,87.92Z" transform="translate(-4.08 -2.98)"/><polygon class="cls-3" points="324.23 84.94 273.54 85.17 299.08 70.41 324.23 84.94"/><path class="cls-1" d="M328.09,74.92l-2.47,1.33a14.52,14.52,0,0,1-.93-3.29Z" transform="translate(-4.08 -2.98)"/><path d="M326,55.57l.28-.15a22.51,22.51,0,0,0-5.62,8.63l-4.23,2.28,0,.06-8,4.29-3.88-2.24-1.25,2.16-.17-.31,1-1.88-1-.54Z" transform="translate(-4.08 -2.98)"/><path class="cls-1" d="M325.62,76.25l-3,1.62-3-5.65a14.35,14.35,0,0,1-.08-1.61c0-.21,0-.42,0-.63l5.17,3A14.52,14.52,0,0,0,325.62,76.25Z" transform="translate(-4.08 -2.98)"/><polygon points="320.07 147.98 300.56 161.02 281 147.95 300.56 160.37 320.07 147.98"/><polygon class="cls-3" points="318.57 144.17 317.85 144.65 300.56 155.63 283.08 144.53 282.54 144.17 318.57 144.17"/><polygon points="317.85 144.65 300.56 156.21 283.08 144.53 300.56 155.63 317.85 144.65"/><path class="cls-1" d="M320.87,77.81a.08.08,0,0,0,0,0l-12.43-7.18,8-4.29,2.45,4.55-2.48,4.29Z" transform="translate(-4.08 -2.98)"/><path class="cls-1" d="M320.87,77.81l-4.47-2.58,2.48-4.29.7,1.28A19.29,19.29,0,0,0,320.87,77.81Z" transform="translate(-4.08 -2.98)"/><path class="cls-1" d="M320.63,64.05l0,.09-4.17,2.25,0-.06Z" transform="translate(-4.08 -2.98)"/><path class="cls-1" d="M316.43,66.39l4.17-2.25A19.41,19.41,0,0,0,319.52,70l-.06,0-.58,1Z" transform="translate(-4.08 -2.98)"/><path class="cls-1" d="M319.58,72.22l-.7-1.28.58-1,.06,0c0,.21,0,.42,0,.63A14.35,14.35,0,0,0,319.58,72.22Z" transform="translate(-4.08 -2.98)"/><polygon points="304.38 67.7 300.44 69.83 299.25 67.62 300.5 65.46 304.38 67.7"/><path class="cls-3" d="M305.09,3.65a2.64,2.64,0,0,1-.71,4.14l.37-.25-1.41-2.06,1.41-2.06Z" transform="translate(-4.08 -2.98)"/><path class="cls-3" d="M305.09,3.65l-.34-.23-1.41,2.06-1.41-2.05A2.36,2.36,0,0,1,303.38,3,2.31,2.31,0,0,1,305.09,3.65Z" transform="translate(-4.08 -2.98)"/><path class="cls-3" d="M303.34,5.48l1.41,2.06-.37.25a2.58,2.58,0,0,1-1,.19,2.36,2.36,0,0,1-1.45-.45Z" transform="translate(-4.08 -2.98)"/><path class="cls-3" d="M304.38,7.79l-1.05.72-1.41-1h0a2.36,2.36,0,0,0,1.45.45A2.58,2.58,0,0,0,304.38,7.79Z" transform="translate(-4.08 -2.98)"/><polygon points="299.08 67.92 300.16 69.79 299.08 70.41 298 69.79 299.08 67.92"/><polygon points="300.09 65.43 299.08 67.31 298.07 65.43 299.08 64.89 300.09 65.43"/><path class="cls-3" d="M303.34,5.48l-1.41,2.05a2.66,2.66,0,0,1,0-4.1Z" transform="translate(-4.08 -2.98)"/><polygon points="299.25 67.62 299.08 67.92 298.91 67.63 299.08 67.31 299.25 67.62"/><path class="cls-3" d="M301.92,7.54l1.41,1L268.15,32.63V31.32H268a2.36,2.36,0,0,0-2.42-2.42,2.4,2.4,0,0,0-1.33.37v0L301.92,3.42h0a2.66,2.66,0,0,0,0,4.1Z" transform="translate(-4.08 -2.98)"/><path d="M280.3,55.54l22.86,12.33-1,.54,1,1.88-.17.32-1.26-2.17-3.88,2.24-12.13-6.54a22.48,22.48,0,0,0-5.56-8.63l.12.06Z" transform="translate(-4.08 -2.98)"/><path d="M303.16,73.39,277.62,88.15h-.33a23.65,23.65,0,0,0,8.14-10.29l12.42-7.18,3.95,2.13,1.19-2.2.17.29-1.08,1.87Z" transform="translate(-4.08 -2.98)"/><polygon points="298.91 67.63 297.72 69.83 293.77 67.7 297.65 65.46 298.91 67.63"/><path class="cls-1" d="M297.85,70.68l-12.42,7.18s0,0,0,0l4.45-2.56-2.81-4.87,2.3-4.26-3.66-2s0,0,0,0Z" transform="translate(-4.08 -2.98)"/><path class="cls-1" d="M287.08,70.39l2.81,4.87-4.45,2.56a19.31,19.31,0,0,0,1.37-6.93Z" transform="translate(-4.08 -2.98)"/><path class="cls-1" d="M289.38,66.13l-2.3,4.26-.25-.43,0,0a19,19,0,0,0-1.08-5.82Z" transform="translate(-4.08 -2.98)"/><path class="cls-1" d="M286.83,70l.25.43-.27.5a2.62,2.62,0,0,0,0-.28c0-.21,0-.42,0-.63Z" transform="translate(-4.08 -2.98)"/><path class="cls-1" d="M286.8,70c0,.21,0,.42,0,.63a2.62,2.62,0,0,1,0,.28l-3.66,6.79-2.49-1.34a14.55,14.55,0,0,0,1-3.38Z" transform="translate(-4.08 -2.98)"/><path class="cls-1" d="M283.15,77.68l3.66-6.79a19.31,19.31,0,0,1-1.37,6.93l-11.68,6.75a18.88,18.88,0,0,0,6.9-8.23Z" transform="translate(-4.08 -2.98)"/><path class="cls-1" d="M286.8,70l-5.17,3a14.06,14.06,0,0,0,.19-2.35,16.1,16.1,0,0,0-4.65-11.06l8.55,4.61A19,19,0,0,1,286.8,70Z" transform="translate(-4.08 -2.98)"/><path class="cls-1" d="M285.72,64.14s0,0,0,0l-8.55-4.61,0,0Z" transform="translate(-4.08 -2.98)"/><path d="M285.72,64.14l-8.59-4.63a24.64,24.64,0,0,0-12.7-6.84l-.31-.17,1.19-2.2h2.84V49l12,6.47A22.48,22.48,0,0,1,285.72,64.14Z" transform="translate(-4.08 -2.98)"/><path class="cls-1" d="M273.76,84.57l11.68-6.75s0,0,0,0l-12.07,7Z" transform="translate(-4.08 -2.98)"/><path d="M273.36,84.84l12.07-7a23.65,23.65,0,0,1-8.14,10.29l-5.59,0-1-1.79.16-.09A23.16,23.16,0,0,0,273.36,84.84Z" transform="translate(-4.08 -2.98)"/><path d="M285.08,150.93l-16.31-10.36c0-.52-.1-1-.15-1.43l5.32,0,6.35,4h-6.85Z" transform="translate(-4.08 -2.98)"/><path class="cls-3" d="M283.11,50.32l-2.81,5.22-.23-.12a29.41,29.41,0,0,0-11.92-6.94V43.23l.41-.76Z" transform="translate(-4.08 -2.98)"/><path class="cls-1" d="M281.82,70.61a14.06,14.06,0,0,1-.19,2.35l-3.49,2-14.36-7.74L270,55.7l7.16,3.85A16.1,16.1,0,0,1,281.82,70.61Z" transform="translate(-4.08 -2.98)"/><path class="cls-1" d="M278.14,75l3.49-2a14.55,14.55,0,0,1-1,3.38Z" transform="translate(-4.08 -2.98)"/><path class="cls-1" d="M278.14,75l2.52,1.36a18.88,18.88,0,0,1-6.9,8.23l-2.59,1.49-3.06-5.29Z" transform="translate(-4.08 -2.98)"/><path class="cls-1" d="M280.3,55.54l0,0-.12-.06-.09-.09Z" transform="translate(-4.08 -2.98)"/><path class="cls-1" d="M280.07,55.42l.09.09-12-6.47v0Z" transform="translate(-4.08 -2.98)"/><path class="cls-3" d="M280.07,55.42,268.15,49v-.51A29.41,29.41,0,0,1,280.07,55.42Z" transform="translate(-4.08 -2.98)"/><polygon class="cls-3" points="275.47 132.77 273.84 135.33 273.09 135.33 273.09 131.33 273.2 131.33 275.47 132.77"/><path class="cls-1" d="M278.14,75l-10,5.79,3.06,5.29,2.59-1.49-.4.27-2.53,1.46a26.56,26.56,0,0,1-5,1.9l-15.28.07c-9.43-2.46-16.24-9.45-16.24-17.66C234.32,60.34,245,52,258.07,52a29.31,29.31,0,0,1,6.36.69l12.7,6.84,0,0L270,55.7l-6.23,11.54Z" transform="translate(-4.08 -2.98)"/><polygon class="cls-3" points="273.84 135.33 273.34 136.12 273.09 136.12 273.09 135.33 273.84 135.33"/><path d="M277.62,88.15l-2.09,1.21c.61-.38,1.2-.78,1.76-1.21Z" transform="translate(-4.08 -2.98)"/><polygon class="cls-6" points="273.34 136.12 273.09 136.52 273.09 136.12 273.34 136.12"/><path d="M271.7,88.18l5.59,0c-.56.43-1.15.83-1.76,1.21l-1.87,1.08-.5.26Z" transform="translate(-4.08 -2.98)"/><polygon class="cls-1" points="273.2 131.33 273.09 131.33 273.09 131.26 273.2 131.33"/><polygon class="cls-3" points="273.09 136.12 273.09 136.52 272.35 137.68 269.92 136.14 273.09 136.12"/><polygon class="cls-3" points="273.09 135.33 273.09 136.12 269.92 136.14 268.65 135.33 273.09 135.33"/><polygon class="cls-3" points="273.09 131.33 273.09 135.33 268.65 135.33 264.2 132.51 269.97 132.11 269.92 131.33 273.09 131.33"/><polygon points="273.09 131.26 273.09 131.33 269.92 131.33 269.9 131.14 272.88 131.12 273.09 131.26"/><polygon class="cls-3" points="273.09 131.12 273.09 131.26 272.88 131.12 273.09 131.12"/><path d="M277.13,59.51l-12.7-6.84A24.64,24.64,0,0,1,277.13,59.51Z" transform="translate(-4.08 -2.98)"/><polygon points="272.88 131.12 269.9 131.14 269.77 129.15 272.88 131.12"/><path class="cls-2" d="M273.66,90.44l1.87-1.08C274.93,89.74,274.3,90.1,273.66,90.44Z" transform="translate(-4.08 -2.98)"/><polygon class="cls-3" points="269.92 131.33 269.97 132.11 264.2 132.51 264.19 132.5 264.93 131.33 269.92 131.33"/><polygon class="cls-3" points="268.65 135.33 269.92 136.14 269.86 136.14 268.59 135.33 268.65 135.33"/><polygon points="269.9 131.14 269.92 131.33 264.93 131.33 265.04 131.16 269.9 131.14"/><polygon points="269.77 129.15 269.9 131.14 265.04 131.16 267.31 127.59 269.77 129.15"/><path d="M272.67,138.31l1.27.81-5.32,0c-.15-1.59-.28-2.6-.34-3V136l0-.51h0l4.45,2.82Z" transform="translate(-4.08 -2.98)"/><polygon points="269.35 123 269.77 129.15 267.31 127.59 265.04 131.16 264.07 131.16 263.54 123.39 269.35 123"/><path class="cls-2" d="M273.66,90.44l-.49.28v0Z" transform="translate(-4.08 -2.98)"/><polygon points="269.34 121.22 269.35 123 263.54 123.39 263.39 121.24 269.34 121.22"/><path class="cls-1" d="M270.83,86.3l2.53-1.46A23.16,23.16,0,0,1,270.83,86.3Z" transform="translate(-4.08 -2.98)"/><path d="M271.7,88.18l1.46,2.52a31.48,31.48,0,0,1-7.78,2.75l-.06-.9-5,.34.09,1.26c-.78,0-1.56.08-2.35.08a32.32,32.32,0,0,1-19-5.91l11.47,0a29.6,29.6,0,0,0,7.51,1,29.28,29.28,0,0,0,7.77-1Z" transform="translate(-4.08 -2.98)"/><path d="M270.67,86.39l1,1.79-5.86,0a26.56,26.56,0,0,0,5-1.9Z" transform="translate(-4.08 -2.98)"/><polygon points="265.04 131.16 264.93 131.33 264.08 131.33 264.07 131.16 265.04 131.16"/><polygon class="cls-7" points="264.93 131.33 264.19 132.5 264.2 132.51 264.16 132.51 264.08 131.33 264.93 131.33"/><path d="M268.77,140.57l-2.24-1.42h2.09C268.67,139.57,268.72,140.05,268.77,140.57Z" transform="translate(-4.08 -2.98)"/><path d="M268.62,139.14h-2.09l-3.15-2c0-.3-.07-.47-.07-.49l2.41-.35,2.56-.17C268.34,136.54,268.47,137.55,268.62,139.14Z" transform="translate(-4.08 -2.98)"/><path class="cls-1" d="M268.27,136v.14l-2.56.17,2.54-.36A.11.11,0,0,0,268.27,136Z" transform="translate(-4.08 -2.98)"/><path d="M268.24,135.49l0,.51a.11.11,0,0,1,0-.05l-2.54.36-2.43.17-.15-2.17h5Z" transform="translate(-4.08 -2.98)"/><polygon class="cls-2" points="264.07 131.16 264.08 131.33 264.06 131.16 264.07 131.16"/><polygon class="cls-2" points="264.06 131.16 264.08 131.33 259.06 131.33 259.05 131.19 264.06 131.16"/><polygon points="264.07 46.06 264.07 47.32 261.23 47.32 262.39 45.15 264.07 46.06"/><polygon class="cls-2" points="264.07 46.01 264.07 46.06 262.39 45.15 262.41 45.12 264.07 46.01"/><path class="cls-3" d="M268.15,48.48V49l-1.66-.89,0,0-.4-.21C266.78,48.08,267.47,48.27,268.15,48.48Z" transform="translate(-4.08 -2.98)"/><path class="cls-3" d="M268.15,43.23v5.25c-.68-.21-1.37-.4-2.08-.56l-.35-.19Z" transform="translate(-4.08 -2.98)"/><path class="cls-3" d="M268.15,32.63v10.6l-2.43,4.5.35.19a27.4,27.4,0,0,0-2.92-.56v-16h0a2.37,2.37,0,0,0,2.41,2.58,2.32,2.32,0,0,0,1.72-.68Z" transform="translate(-4.08 -2.98)"/><path class="cls-3" d="M268.15,31.32v1.31l-.85.59a2.66,2.66,0,0,0,.7-1.9Z" transform="translate(-4.08 -2.98)"/><polygon class="cls-5" points="263.54 123.39 264.06 131.16 259.05 131.19 258.39 121.38 260.23 121.25 263.39 121.24 263.54 123.39"/><path class="cls-3" d="M268,31.32a2.66,2.66,0,0,1-.7,1.9l-.24.16-1.41-2.06Z" transform="translate(-4.08 -2.98)"/><path class="cls-3" d="M268,31.32h-2.35l-1.4-2.05a2.4,2.4,0,0,1,1.33-.37A2.36,2.36,0,0,1,268,31.32Z" transform="translate(-4.08 -2.98)"/><polygon class="cls-5" points="263.19 118.24 263.39 121.24 260.23 121.25 260.22 118.25 263.19 118.24"/><path class="cls-3" d="M267.06,33.38l.24-.16a2.32,2.32,0,0,1-1.72.68,2.37,2.37,0,0,1-2.41-2.58h2.48Z" transform="translate(-4.08 -2.98)"/><polygon class="cls-5" points="262.83 113.03 263.19 118.24 260.22 118.25 260.23 121.25 258.39 121.38 256.54 94.25 261.56 94.23 262.03 101.25 261.71 101.25 261.71 104.25 262.24 104.25 262.63 110.03 260.23 110.03 260.23 113.03 262.83 113.03"/><polygon class="cls-5" points="262.63 110.03 262.83 113.03 260.23 113.03 260.23 110.03 262.63 110.03"/><path class="cls-1" d="M266.53,139.15H263.6c-.09-.92-.17-1.6-.22-2Z" transform="translate(-4.08 -2.98)"/><path d="M266.47,48.13l-1.16,2.17h-2.16V47.36a27.4,27.4,0,0,1,2.92.56Z" transform="translate(-4.08 -2.98)"/><polygon class="cls-5" points="262.03 101.25 262.24 104.25 261.71 104.25 261.71 101.25 262.03 101.25"/><path class="cls-1" d="M250.56,88.27l15.28-.07a29.28,29.28,0,0,1-7.77,1A29.6,29.6,0,0,1,250.56,88.27Z" transform="translate(-4.08 -2.98)"/><path class="cls-1" d="M265.72,136.31l-2.41.35s0,.19.07.49l-4.47-2.84h4.23l.15,2.17Z" transform="translate(-4.08 -2.98)"/><path class="cls-3" d="M264.25,29.27l1.4,2.05h-2.48A2.46,2.46,0,0,1,264.25,29.27Z" transform="translate(-4.08 -2.98)"/><path d="M265.38,93.45l.26,3.76-5,0-.2-3.08A33.28,33.28,0,0,0,265.38,93.45Z" transform="translate(-4.08 -2.98)"/><path d="M265.32,92.55l.06.9a33.28,33.28,0,0,1-5,.7l-.09-1.26Z" transform="translate(-4.08 -2.98)"/><path d="M265.31,50.3l-1.19,2.2.31.17a29.31,29.31,0,0,0-6.36-.69c-13.1,0-23.75,8.36-23.75,18.63,0,8.21,6.81,15.2,16.24,17.66l-11.47,0c-6-4.32-9.77-10.66-9.77-17.71,0-13,12.89-23.63,28.75-23.63a33.93,33.93,0,0,1,5.08.38V50.3Z" transform="translate(-4.08 -2.98)"/><path d="M260.42,94.15l.2,3.08-102.84.46L14.47,348.49l115,197.2v0l-.21-.36-.87.5,1,1.74a.12.12,0,0,0-.05.08l-2,8.75a.14.14,0,0,0,0,.11l-1.48.86L4.08,348.54,152.55,88.71l86.54-.39a32.32,32.32,0,0,0,19,5.91C258.86,94.23,259.64,94.2,260.42,94.15Z" transform="translate(-4.08 -2.98)"/><polygon class="cls-3" points="243.6 552.5 181.06 552.78 181.06 552.5 243.6 552.5"/><path class="cls-1" d="M187.75,282a2,2,0,0,0,.05-.87,1.9,1.9,0,0,1-.33,1.47A1.83,1.83,0,0,0,187.75,282Z" transform="translate(-4.08 -2.98)"/><path class="cls-1" d="M187.8,281.17a2,2,0,0,1-.05.87,1.83,1.83,0,0,1-.28.6,2.43,2.43,0,0,1-.2.25,1.21,1.21,0,0,1-.24.21,2.46,2.46,0,0,1-.27.17l-.24.11-.08,0a2.1,2.1,0,0,1-.61.09,2,2,0,0,1-.53-.07,21.07,21.07,0,0,1-4.36-1.93,21.07,21.07,0,0,1,4.36-1.93,1.94,1.94,0,0,1,1.07,0h0a1.34,1.34,0,0,1,.3.12.77.77,0,0,1,.18.1l.16.1a2.25,2.25,0,0,1,.24.21,2.11,2.11,0,0,1,.19.23c0,.08.1.15.14.23a.64.64,0,0,1,.08.19.47.47,0,0,1,.06.15A1.1,1.1,0,0,1,187.8,281.17Z" transform="translate(-4.08 -2.98)"/><path class="cls-1" d="M187.76,281a1.55,1.55,0,0,1,0,.21,1.1,1.1,0,0,0-.06-.26S187.76,280.94,187.76,281Z" transform="translate(-4.08 -2.98)"/><path class="cls-1" d="M187.74,280.91a.47.47,0,0,0-.06-.15A.47.47,0,0,1,187.74,280.91Z" transform="translate(-4.08 -2.98)"/><path class="cls-1" d="M187.68,280.76a.64.64,0,0,0-.08-.19A.46.46,0,0,1,187.68,280.76Z" transform="translate(-4.08 -2.98)"/><path class="cls-1" d="M187.27,282.89a2.43,2.43,0,0,0,.2-.25A1,1,0,0,1,187.27,282.89Z" transform="translate(-4.08 -2.98)"/><path class="cls-1" d="M187.46,280.34a2.11,2.11,0,0,0-.19-.23A1.37,1.37,0,0,1,187.46,280.34Z" transform="translate(-4.08 -2.98)"/><path class="cls-1" d="M187.27,280.11a2.25,2.25,0,0,0-.24-.21A1.21,1.21,0,0,1,187.27,280.11Z" transform="translate(-4.08 -2.98)"/><path class="cls-1" d="M187,283.1a1.21,1.21,0,0,0,.24-.21A1.21,1.21,0,0,1,187,283.1Z" transform="translate(-4.08 -2.98)"/><path class="cls-1" d="M187,279.9l-.16-.1Z" transform="translate(-4.08 -2.98)"/><path class="cls-1" d="M186.76,283.27a2.46,2.46,0,0,0,.27-.17A1,1,0,0,1,186.76,283.27Z" transform="translate(-4.08 -2.98)"/><path class="cls-1" d="M186.87,279.8a.77.77,0,0,0-.18-.1Z" transform="translate(-4.08 -2.98)"/><path class="cls-1" d="M186.52,283.38l.24-.11A1.28,1.28,0,0,1,186.52,283.38Z" transform="translate(-4.08 -2.98)"/><path class="cls-1" d="M186.69,279.7a1.34,1.34,0,0,0-.3-.12A1.34,1.34,0,0,1,186.69,279.7Z" transform="translate(-4.08 -2.98)"/><path class="cls-1" d="M186.44,283.41l-.06,0c-.54.15-12.65,3.8-14.51,19a.19.19,0,0,1,0,.07,1.68,1.68,0,0,0,0-.55,30.38,30.38,0,0,0-2-7.83,25.39,25.39,0,0,1,11.05-12.66,21.07,21.07,0,0,0,4.36,1.93,2,2,0,0,0,.53.07A2.1,2.1,0,0,0,186.44,283.41Z" transform="translate(-4.08 -2.98)"/><path class="cls-1" d="M186.37,279.58a1.94,1.94,0,0,0-1.07,0,21.07,21.07,0,0,0-4.36,1.93,25.39,25.39,0,0,1-11.05-12.66,30.38,30.38,0,0,0,2-7.83,1.68,1.68,0,0,0,0-.55.19.19,0,0,1,0,.07C173.72,275.72,185.77,279.4,186.37,279.58Z" transform="translate(-4.08 -2.98)"/><ellipse class="cls-1" cx="165.81" cy="278.52" rx="11.05" ry="12.66"/><path class="cls-1" d="M173.44,393.86a1.84,1.84,0,0,1,0,.33,2.8,2.8,0,0,1-.06.28l0,.08a1.75,1.75,0,0,1-.11.24,2.61,2.61,0,0,1-.17.28,2.16,2.16,0,0,1-.4.4l-.27.17-.24.1-.09,0a2,2,0,0,1-.6.09,2,2,0,0,1-.54-.07,15.36,15.36,0,0,1-4-1.93,14.76,14.76,0,0,1,4-1.92,2,2,0,0,1,1,0l.1,0a1.75,1.75,0,0,1,.32.12,1.49,1.49,0,0,1,.24.14,1.6,1.6,0,0,1,.5.47,1.78,1.78,0,0,1,.17.27,1.75,1.75,0,0,1,.11.24l0,.08a2.8,2.8,0,0,1,.06.28A1.63,1.63,0,0,1,173.44,393.86Z" transform="translate(-4.08 -2.98)"/><path class="cls-1" d="M173.44,393.86a1.63,1.63,0,0,0,0-.31A1.71,1.71,0,0,1,173.44,393.86Z" transform="translate(-4.08 -2.98)"/><path class="cls-1" d="M173.37,393.33a.85.85,0,0,1,0,.22,2.8,2.8,0,0,0-.06-.28Z" transform="translate(-4.08 -2.98)"/><path class="cls-1" d="M173.41,394.19a.85.85,0,0,1,0,.22l0,.06A2.8,2.8,0,0,0,173.41,394.19Z" transform="translate(-4.08 -2.98)"/><path class="cls-1" d="M173.32,393.19a1.75,1.75,0,0,0-.11-.24A1.28,1.28,0,0,1,173.32,393.19Z" transform="translate(-4.08 -2.98)"/><path class="cls-1" d="M173.21,394.79a1.75,1.75,0,0,0,.11-.24A1.28,1.28,0,0,1,173.21,394.79Z" transform="translate(-4.08 -2.98)"/><path class="cls-1" d="M173.21,393a1.78,1.78,0,0,0-.17-.27A1,1,0,0,1,173.21,393Z" transform="translate(-4.08 -2.98)"/><path class="cls-1" d="M173,395.07a2.61,2.61,0,0,0,.17-.28A1.17,1.17,0,0,1,173,395.07Z" transform="translate(-4.08 -2.98)"/><path class="cls-1" d="M172.37,395.64l.27-.17A1.78,1.78,0,0,1,172.37,395.64Z" transform="translate(-4.08 -2.98)"/><path class="cls-1" d="M172.54,392.21a1.49,1.49,0,0,0-.24-.14A1,1,0,0,1,172.54,392.21Z" transform="translate(-4.08 -2.98)"/><path class="cls-1" d="M172.13,395.74l.24-.1A1.22,1.22,0,0,1,172.13,395.74Z" transform="translate(-4.08 -2.98)"/><path class="cls-1" d="M172.3,392.07A1.75,1.75,0,0,0,172,392,1,1,0,0,1,172.3,392.07Z" transform="translate(-4.08 -2.98)"/><path class="cls-1" d="M172,395.78l-.06,0c-.34.1-7.67,2.35-8.81,11.63a1.93,1.93,0,0,0,0-.48,19.51,19.51,0,0,0-2-6.66,17,17,0,0,1,5.75-6.42,15.36,15.36,0,0,0,4,1.93,2,2,0,0,0,.54.07A2,2,0,0,0,172,395.78Z" transform="translate(-4.08 -2.98)"/><path class="cls-1" d="M171.85,260.46a1.68,1.68,0,0,1,0,.55,30.38,30.38,0,0,1-2,7.83,30,30,0,0,1-2-7.83,1.68,1.68,0,0,1,0-.55.41.41,0,0,1,0-.16,1.55,1.55,0,0,1,.07-.23s0,0,0,0a1.48,1.48,0,0,1,.15-.31,1.54,1.54,0,0,1,.21-.29,1,1,0,0,1,.21-.21.88.88,0,0,1,.17-.12,1.49,1.49,0,0,1,.43-.23l.23-.07.13,0a1.73,1.73,0,0,1,.32,0h0a1.73,1.73,0,0,1,.32,0l.13,0,.23.07a1.25,1.25,0,0,1,.41.22,1.12,1.12,0,0,1,.22.16.77.77,0,0,1,.18.18,1.54,1.54,0,0,1,.21.29,1.48,1.48,0,0,1,.15.31v0a1.55,1.55,0,0,1,.07.23A.41.41,0,0,1,171.85,260.46Z" transform="translate(-4.08 -2.98)"/><path class="cls-1" d="M171.87,302a1.68,1.68,0,0,1,0,.55.41.41,0,0,1,0,.16,1.55,1.55,0,0,1-.07.23v0a1.48,1.48,0,0,1-.15.31,1.54,1.54,0,0,1-.21.29,1,1,0,0,1-.21.21.66.66,0,0,1-.17.12,1.49,1.49,0,0,1-.43.23l-.21.06a.41.41,0,0,1-.16,0,1.53,1.53,0,0,1-.3,0h0a1.55,1.55,0,0,1-.31,0l-.13,0-.23-.07a1.78,1.78,0,0,1-.43-.23.66.66,0,0,1-.17-.12,1,1,0,0,1-.21-.21,1.54,1.54,0,0,1-.21-.29A1.48,1.48,0,0,1,168,303s0,0,0,0a1.55,1.55,0,0,1-.07-.23.41.41,0,0,1,0-.16,1.68,1.68,0,0,1,0-.55,30,30,0,0,1,2-7.83A30.38,30.38,0,0,1,171.87,302Z" transform="translate(-4.08 -2.98)"/><path class="cls-1" d="M171.85,260.46a.41.41,0,0,0,0-.16A.45.45,0,0,1,171.85,260.46Z" transform="translate(-4.08 -2.98)"/><path class="cls-1" d="M171.82,302.7a.41.41,0,0,0,0-.16A.45.45,0,0,1,171.82,302.7Z" transform="translate(-4.08 -2.98)"/><path class="cls-1" d="M171.82,260.3a1.55,1.55,0,0,0-.07-.23A.62.62,0,0,1,171.82,260.3Z" transform="translate(-4.08 -2.98)"/><path class="cls-1" d="M171.75,302.93a1.55,1.55,0,0,0,.07-.23A.62.62,0,0,1,171.75,302.93Z" transform="translate(-4.08 -2.98)"/><path class="cls-1" d="M171.88,391.92a2,2,0,0,0-1,0,14.76,14.76,0,0,0-4,1.92,17,17,0,0,1-5.75-6.42,19.51,19.51,0,0,0,2-6.66,1.77,1.77,0,0,0,0-.46C164.26,389.13,171,391.62,171.88,391.92Z" transform="translate(-4.08 -2.98)"/><path class="cls-1" d="M171.74,260.05a1.48,1.48,0,0,0-.15-.31A1,1,0,0,1,171.74,260.05Z" transform="translate(-4.08 -2.98)"/><path class="cls-1" d="M171.59,303.26a1.48,1.48,0,0,0,.15-.31A1,1,0,0,1,171.59,303.26Z" transform="translate(-4.08 -2.98)"/><path class="cls-1" d="M171.59,259.74a1.54,1.54,0,0,0-.21-.29A1,1,0,0,1,171.59,259.74Z" transform="translate(-4.08 -2.98)"/><path class="cls-1" d="M171.38,303.55a1.54,1.54,0,0,0,.21-.29A1.12,1.12,0,0,1,171.38,303.55Z" transform="translate(-4.08 -2.98)"/><path class="cls-1" d="M171.2,259.27a1.12,1.12,0,0,0-.22-.16A1.12,1.12,0,0,1,171.2,259.27Z" transform="translate(-4.08 -2.98)"/><path class="cls-1" d="M171,303.88a.66.66,0,0,0,.17-.12A.66.66,0,0,1,171,303.88Z" transform="translate(-4.08 -2.98)"/><path class="cls-1" d="M170.57,258.89l-.23-.07Z" transform="translate(-4.08 -2.98)"/><path class="cls-1" d="M170.36,304.17l.21-.06Z" transform="translate(-4.08 -2.98)"/><path class="cls-1" d="M170.2,304.2a.41.41,0,0,0,.16,0A.45.45,0,0,1,170.2,304.2Z" transform="translate(-4.08 -2.98)"/><path class="cls-1" d="M170.21,258.8a1.73,1.73,0,0,0-.32,0h.24Z" transform="translate(-4.08 -2.98)"/><path class="cls-1" d="M170.2,304.2l-.07,0h-.23A1.53,1.53,0,0,0,170.2,304.2Z" transform="translate(-4.08 -2.98)"/><path class="cls-1" d="M169.88,258.77a1.73,1.73,0,0,0-.32,0l.08,0Z" transform="translate(-4.08 -2.98)"/><path class="cls-1" d="M169.87,304.23h-.23l-.08,0A1.55,1.55,0,0,0,169.87,304.23Z" transform="translate(-4.08 -2.98)"/><path class="cls-1" d="M169.43,258.82l-.23.07Z" transform="translate(-4.08 -2.98)"/><path class="cls-1" d="M169.2,304.11l.23.07Z" transform="translate(-4.08 -2.98)"/><path class="cls-1" d="M168.77,259.12a.88.88,0,0,0-.17.12A.66.66,0,0,1,168.77,259.12Z" transform="translate(-4.08 -2.98)"/><path class="cls-1" d="M168.6,303.76a.66.66,0,0,0,.17.12A.66.66,0,0,1,168.6,303.76Z" transform="translate(-4.08 -2.98)"/><path class="cls-1" d="M168.6,259.24a1,1,0,0,0-.21.21A1,1,0,0,1,168.6,259.24Z" transform="translate(-4.08 -2.98)"/><path class="cls-1" d="M168.39,259.45a1.54,1.54,0,0,0-.21.29A1.12,1.12,0,0,1,168.39,259.45Z" transform="translate(-4.08 -2.98)"/><path class="cls-1" d="M168.18,303.26a1.54,1.54,0,0,0,.21.29A1.12,1.12,0,0,1,168.18,303.26Z" transform="translate(-4.08 -2.98)"/><path class="cls-1" d="M168.18,259.74a1.48,1.48,0,0,0-.15.31A1,1,0,0,1,168.18,259.74Z" transform="translate(-4.08 -2.98)"/><path class="cls-1" d="M168,303a1.48,1.48,0,0,0,.15.31A1,1,0,0,1,168,303Z" transform="translate(-4.08 -2.98)"/><path class="cls-1" d="M168,260.07a1.55,1.55,0,0,0-.07.23A.62.62,0,0,1,168,260.07Z" transform="translate(-4.08 -2.98)"/><path class="cls-1" d="M168,302.7a1.55,1.55,0,0,0,.07.23A.62.62,0,0,1,168,302.7Z" transform="translate(-4.08 -2.98)"/><path class="cls-1" d="M167.9,261a30,30,0,0,0,2,7.83,25.49,25.49,0,0,1-11,12.66,21.07,21.07,0,0,0-4.36-1.93,2,2,0,0,0-1.08,0c.52-.16,12.65-3.8,14.5-19.05a.19.19,0,0,1,0-.07A1.68,1.68,0,0,0,167.9,261Z" transform="translate(-4.08 -2.98)"/><path class="cls-1" d="M169.89,294.16a30,30,0,0,0-2,7.83,1.68,1.68,0,0,0,0,.55.19.19,0,0,1,0-.07c-1.86-15.25-14-18.9-14.5-19l-.05,0a2,2,0,0,0,.59.09,2,2,0,0,0,.54-.07,21.07,21.07,0,0,0,4.36-1.93A25.49,25.49,0,0,1,169.89,294.16Z" transform="translate(-4.08 -2.98)"/><path class="cls-1" d="M168,260.3a.41.41,0,0,0,0,.16A.45.45,0,0,1,168,260.3Z" transform="translate(-4.08 -2.98)"/><path class="cls-1" d="M167.92,302.54a.41.41,0,0,0,0,.16A.45.45,0,0,1,167.92,302.54Z" transform="translate(-4.08 -2.98)"/><ellipse class="cls-1" cx="157.11" cy="390.89" rx="5.75" ry="6.42"/><path class="cls-1" d="M163.17,380.33a1.77,1.77,0,0,1,0,.46,19.51,19.51,0,0,1-2,6.66,19.5,19.5,0,0,1-2-6.66,1.68,1.68,0,0,1,0-.55.41.41,0,0,1,0-.16,1.29,1.29,0,0,1,.06-.21.19.19,0,0,1,.05-.1.7.7,0,0,1,.11-.23.22.22,0,0,1,.05-.08.85.85,0,0,1,.14-.19l.22-.22a1.94,1.94,0,0,1,.29-.21,1.91,1.91,0,0,1,.32-.16,1.67,1.67,0,0,1,.3-.08l.08,0a1.73,1.73,0,0,1,.32,0h0a1.45,1.45,0,0,1,.3,0l.13,0,.24.08s0,0,.05,0a1.11,1.11,0,0,1,.29.14,1.56,1.56,0,0,1,.27.2.07.07,0,0,1,0,0,2,2,0,0,1,.2.21.05.05,0,0,1,0,0,1.11,1.11,0,0,1,.16.24s0,0,0,.05a1.69,1.69,0,0,1,.13.31,1.53,1.53,0,0,1,.08.37A0,0,0,0,1,163.17,380.33Z" transform="translate(-4.08 -2.98)"/><path class="cls-1" d="M163.17,407a1.93,1.93,0,0,1,0,.48s0,0,0,0a1.53,1.53,0,0,1-.08.37,2.33,2.33,0,0,1-.14.33,1.57,1.57,0,0,1-.2.3,1.22,1.22,0,0,1-.15.17,1.07,1.07,0,0,1-.16.14.05.05,0,0,1-.05,0,.87.87,0,0,1-.23.16l-.1.05a1.19,1.19,0,0,1-.26.11h0a1.55,1.55,0,0,1-.36.08l-.24,0a1.63,1.63,0,0,1-.31,0,1.37,1.37,0,0,1-.29-.07h0a.92.92,0,0,1-.23-.09.7.7,0,0,1-.17-.09l-.08-.05a1,1,0,0,1-.2-.15,1.25,1.25,0,0,1-.23-.23,1,1,0,0,1-.13-.18,1.49,1.49,0,0,1-.23-.43,2,2,0,0,1-.07-.23.51.51,0,0,1,0-.13,1.81,1.81,0,0,1,0-.57,19.5,19.5,0,0,1,2-6.66A19.51,19.51,0,0,1,163.17,407Z" transform="translate(-4.08 -2.98)"/><path class="cls-1" d="M163.17,380.31a1.53,1.53,0,0,0-.08-.37A1.17,1.17,0,0,1,163.17,380.31Z" transform="translate(-4.08 -2.98)"/><path class="cls-1" d="M163.09,407.81a1.53,1.53,0,0,0,.08-.37A1.53,1.53,0,0,1,163.09,407.81Z" transform="translate(-4.08 -2.98)"/><path class="cls-1" d="M163.09,379.94a1.69,1.69,0,0,0-.13-.31A1.2,1.2,0,0,1,163.09,379.94Z" transform="translate(-4.08 -2.98)"/><path class="cls-1" d="M163,408.14a2.33,2.33,0,0,0,.14-.33A1.22,1.22,0,0,1,163,408.14Z" transform="translate(-4.08 -2.98)"/><path class="cls-1" d="M162.75,408.44a1.57,1.57,0,0,0,.2-.3A1.21,1.21,0,0,1,162.75,408.44Z" transform="translate(-4.08 -2.98)"/><path class="cls-1" d="M162.93,379.58a1.11,1.11,0,0,0-.16-.24A.63.63,0,0,1,162.93,379.58Z" transform="translate(-4.08 -2.98)"/><path class="cls-1" d="M162.6,408.61a1.22,1.22,0,0,0,.15-.17A.8.8,0,0,1,162.6,408.61Z" transform="translate(-4.08 -2.98)"/><path class="cls-1" d="M162.74,379.29a2,2,0,0,0-.2-.21A1.34,1.34,0,0,1,162.74,379.29Z" transform="translate(-4.08 -2.98)"/><path class="cls-1" d="M162.44,408.75a1.07,1.07,0,0,0,.16-.14A1.07,1.07,0,0,1,162.44,408.75Z" transform="translate(-4.08 -2.98)"/><path class="cls-1" d="M162.49,379a1.56,1.56,0,0,0-.27-.2A1.05,1.05,0,0,1,162.49,379Z" transform="translate(-4.08 -2.98)"/><path class="cls-1" d="M162.16,408.94a.87.87,0,0,0,.23-.16A.87.87,0,0,1,162.16,408.94Z" transform="translate(-4.08 -2.98)"/><path class="cls-1" d="M162.22,378.84a1.11,1.11,0,0,0-.29-.14A1.11,1.11,0,0,1,162.22,378.84Z" transform="translate(-4.08 -2.98)"/><path class="cls-1" d="M161.8,409.1a1.19,1.19,0,0,0,.26-.11A1.19,1.19,0,0,1,161.8,409.1Z" transform="translate(-4.08 -2.98)"/><path class="cls-1" d="M161.88,378.68l-.24-.08A1.13,1.13,0,0,1,161.88,378.68Z" transform="translate(-4.08 -2.98)"/><path class="cls-1" d="M161.43,409.18a1.55,1.55,0,0,0,.36-.08A1.35,1.35,0,0,1,161.43,409.18Z" transform="translate(-4.08 -2.98)"/><path class="cls-1" d="M161.51,378.58a1.45,1.45,0,0,0-.3,0h.22Z" transform="translate(-4.08 -2.98)"/><path class="cls-1" d="M161.19,378.55a1.73,1.73,0,0,0-.32,0l.08,0Z" transform="translate(-4.08 -2.98)"/><path class="cls-1" d="M160.59,409.1a1.37,1.37,0,0,0,.29.07A1,1,0,0,1,160.59,409.1Z" transform="translate(-4.08 -2.98)"/><path class="cls-1" d="M160.79,378.6a1.67,1.67,0,0,0-.3.08A1,1,0,0,1,160.79,378.6Z" transform="translate(-4.08 -2.98)"/><path class="cls-1" d="M160.35,409a.92.92,0,0,0,.23.09A.92.92,0,0,1,160.35,409Z" transform="translate(-4.08 -2.98)"/><path class="cls-1" d="M160.49,378.68a1.91,1.91,0,0,0-.32.16A1.37,1.37,0,0,1,160.49,378.68Z" transform="translate(-4.08 -2.98)"/><path class="cls-1" d="M160.18,408.92a.7.7,0,0,0,.17.09Z" transform="translate(-4.08 -2.98)"/><path class="cls-1" d="M160.17,378.84a1.94,1.94,0,0,0-.29.21A1.12,1.12,0,0,1,160.17,378.84Z" transform="translate(-4.08 -2.98)"/><path class="cls-1" d="M159.9,408.72a1,1,0,0,0,.2.15A1,1,0,0,1,159.9,408.72Z" transform="translate(-4.08 -2.98)"/><path class="cls-1" d="M159.88,379.05l-.22.22A.92.92,0,0,1,159.88,379.05Z" transform="translate(-4.08 -2.98)"/><path class="cls-1" d="M159.54,408.31a1,1,0,0,0,.13.18A.75.75,0,0,1,159.54,408.31Z" transform="translate(-4.08 -2.98)"/><path class="cls-1" d="M159.66,379.27a.85.85,0,0,0-.14.19A1.33,1.33,0,0,1,159.66,379.27Z" transform="translate(-4.08 -2.98)"/><path class="cls-1" d="M159.47,379.54a.7.7,0,0,0-.11.23A.7.7,0,0,1,159.47,379.54Z" transform="translate(-4.08 -2.98)"/><path class="cls-1" d="M159.2,380.79a19.5,19.5,0,0,0,2,6.66,17.09,17.09,0,0,1-5.75,6.42,14.76,14.76,0,0,0-4-1.92,2,2,0,0,0-1.07,0c.41-.12,7.68-2.41,8.79-11.63a.19.19,0,0,1,0-.07A1.68,1.68,0,0,0,159.2,380.79Z" transform="translate(-4.08 -2.98)"/><path class="cls-1" d="M161.19,400.29a19.5,19.5,0,0,0-2,6.66,1.81,1.81,0,0,0,0,.57.24.24,0,0,1,0-.08c-1.14-9.4-8.72-11.62-8.8-11.64l-.05,0a2,2,0,0,0,.59.09,2,2,0,0,0,.54-.07,15.36,15.36,0,0,0,4-1.93A17.09,17.09,0,0,1,161.19,400.29Z" transform="translate(-4.08 -2.98)"/><path class="cls-1" d="M159.31,379.87a1.29,1.29,0,0,0-.06.21A.83.83,0,0,1,159.31,379.87Z" transform="translate(-4.08 -2.98)"/><path class="cls-2" d="M159.24,407.65a2,2,0,0,0,.07.23A1.55,1.55,0,0,1,159.24,407.65Z" transform="translate(-4.08 -2.98)"/><path class="cls-1" d="M159.25,380.08a.41.41,0,0,0,0,.16A.45.45,0,0,1,159.25,380.08Z" transform="translate(-4.08 -2.98)"/><path class="cls-1" d="M154.48,279.57a21.07,21.07,0,0,1,4.36,1.93,21.07,21.07,0,0,1-4.36,1.93,2,2,0,0,1-.54.07,2,2,0,0,1-.59-.09l-.15-.06-.17-.07a1.58,1.58,0,0,1-.24-.15,1.5,1.5,0,0,1-.24-.2,1.21,1.21,0,0,1-.21-.24,1.78,1.78,0,0,1-.17-.27,1.33,1.33,0,0,1-.11-.24.16.16,0,0,0,0-.08,2.3,2.3,0,0,1-.06-.28,1.55,1.55,0,0,1,0-.31h0a1.63,1.63,0,0,1,0-.31A1.89,1.89,0,0,1,152,281a2.31,2.31,0,0,1,.1-.28,2.74,2.74,0,0,1,.19-.34c.07-.08.13-.16.2-.23a1.21,1.21,0,0,1,.24-.21.82.82,0,0,1,.2-.12,1,1,0,0,1,.17-.1l.28-.1A2,2,0,0,1,154.48,279.57Z" transform="translate(-4.08 -2.98)"/><path class="cls-1" d="M153.4,279.58l-.28.1A1.33,1.33,0,0,1,153.4,279.58Z" transform="translate(-4.08 -2.98)"/><path class="cls-1" d="M153.2,283.35l.15.06Z" transform="translate(-4.08 -2.98)"/><path class="cls-1" d="M153,283.28l.17.07A.61.61,0,0,1,153,283.28Z" transform="translate(-4.08 -2.98)"/><path class="cls-1" d="M153,279.78a.82.82,0,0,0-.2.12A.82.82,0,0,1,153,279.78Z" transform="translate(-4.08 -2.98)"/><path class="cls-1" d="M152.55,282.93a1.5,1.5,0,0,0,.24.2A1.16,1.16,0,0,1,152.55,282.93Z" transform="translate(-4.08 -2.98)"/><path class="cls-1" d="M152.75,279.9a1.21,1.21,0,0,0-.24.21A1.21,1.21,0,0,1,152.75,279.9Z" transform="translate(-4.08 -2.98)"/><path class="cls-1" d="M152.34,282.69a1.21,1.21,0,0,0,.21.24A1.21,1.21,0,0,1,152.34,282.69Z" transform="translate(-4.08 -2.98)"/><path class="cls-1" d="M152.51,280.11c-.07.07-.13.15-.2.23A1.43,1.43,0,0,1,152.51,280.11Z" transform="translate(-4.08 -2.98)"/><path class="cls-1" d="M152.17,282.42a1.78,1.78,0,0,0,.17.27A1,1,0,0,1,152.17,282.42Z" transform="translate(-4.08 -2.98)"/><path class="cls-1" d="M152.06,282.18a1.33,1.33,0,0,0,.11.24A1.28,1.28,0,0,1,152.06,282.18Z" transform="translate(-4.08 -2.98)"/><path class="cls-1" d="M152.12,280.68a2.31,2.31,0,0,0-.1.28A1.33,1.33,0,0,1,152.12,280.68Z" transform="translate(-4.08 -2.98)"/><path class="cls-1" d="M152,282.1s0,0,0-.06a.93.93,0,0,1,0-.22A2.3,2.3,0,0,0,152,282.1Z" transform="translate(-4.08 -2.98)"/><path class="cls-1" d="M152,281.19a1.63,1.63,0,0,0,0,.31A1.63,1.63,0,0,1,152,281.19Z" transform="translate(-4.08 -2.98)"/><path class="cls-1" d="M151.94,281.51a1.55,1.55,0,0,0,0,.31A1.71,1.71,0,0,1,151.94,281.51Z" transform="translate(-4.08 -2.98)"/><path class="cls-1" d="M151.48,392a14.76,14.76,0,0,1,4,1.92,15.36,15.36,0,0,1-4,1.93,2,2,0,0,1-.54.07,2,2,0,0,1-.59-.09l-.15-.06-.19-.08a1.78,1.78,0,0,1-.27-.17,1.9,1.9,0,0,1-.4-.4,2.61,2.61,0,0,1-.17-.28,1.75,1.75,0,0,1-.11-.24l0-.08a2.8,2.8,0,0,1-.06-.28,1.84,1.84,0,0,1,0-.33,1.53,1.53,0,0,1,0-.3,1.55,1.55,0,0,1,.07-.31c0-.1.08-.2.13-.3s.11-.18.17-.27a2.25,2.25,0,0,1,.21-.24,2.31,2.31,0,0,1,.24-.2.09.09,0,0,1,.05,0l.24-.14a1.75,1.75,0,0,1,.32-.12h0A2,2,0,0,1,151.48,392Z" transform="translate(-4.08 -2.98)"/><path class="cls-1" d="M150.4,392a1.75,1.75,0,0,0-.32.12A1,1,0,0,1,150.4,392Z" transform="translate(-4.08 -2.98)"/><path class="cls-1" d="M150.2,395.72l.15.06Z" transform="translate(-4.08 -2.98)"/><path class="cls-1" d="M150,395.64l.19.08A.46.46,0,0,1,150,395.64Z" transform="translate(-4.08 -2.98)"/><path class="cls-1" d="M150.08,392.07l-.24.14A1,1,0,0,1,150.08,392.07Z" transform="translate(-4.08 -2.98)"/><path class="cls-1" d="M149.74,395.47a1.78,1.78,0,0,0,.27.17A1.78,1.78,0,0,1,149.74,395.47Z" transform="translate(-4.08 -2.98)"/><path class="cls-1" d="M149.79,392.24a2.31,2.31,0,0,0-.24.2A1.16,1.16,0,0,1,149.79,392.24Z" transform="translate(-4.08 -2.98)"/><path class="cls-1" d="M149.55,392.44a2.25,2.25,0,0,0-.21.24A1.21,1.21,0,0,1,149.55,392.44Z" transform="translate(-4.08 -2.98)"/><path class="cls-1" d="M149.34,392.68c-.06.09-.12.18-.17.27A1,1,0,0,1,149.34,392.68Z" transform="translate(-4.08 -2.98)"/><path class="cls-1" d="M149.17,394.79a2.61,2.61,0,0,0,.17.28A1.17,1.17,0,0,1,149.17,394.79Z" transform="translate(-4.08 -2.98)"/><path class="cls-1" d="M149.17,393c0,.1-.09.2-.13.3A1.14,1.14,0,0,1,149.17,393Z" transform="translate(-4.08 -2.98)"/><path class="cls-1" d="M149.06,394.55a1.75,1.75,0,0,0,.11.24A1.28,1.28,0,0,1,149.06,394.55Z" transform="translate(-4.08 -2.98)"/><path class="cls-1" d="M149,393.25a1.55,1.55,0,0,0-.07.31.93.93,0,0,1,0-.23Z" transform="translate(-4.08 -2.98)"/><path class="cls-1" d="M149,394.47s0,0,0-.06a.85.85,0,0,1,0-.22A2.8,2.8,0,0,0,149,394.47Z" transform="translate(-4.08 -2.98)"/><path class="cls-1" d="M149,393.56a1.53,1.53,0,0,0,0,.3A1.53,1.53,0,0,1,149,393.56Z" transform="translate(-4.08 -2.98)"/><path class="cls-1" d="M138.48,461.18l-.15.15.14-.15Z" transform="translate(-4.08 -2.98)"/><path class="cls-1" d="M138.33,461.33l-1.89,1.89-.39-.66.44.47Z" transform="translate(-4.08 -2.98)"/><path d="M135.17,555.48l.28.48-.86.5-.52-.9.26,0a.13.13,0,0,0,.09,0Z" transform="translate(-4.08 -2.98)"/><polygon class="cls-1" points="125.42 542.71 131.13 552.5 131.09 552.5 125.42 542.74 125.42 542.71"/><path d="M129.5,545.72l5.67,9.76h-.75a.18.18,0,0,0,0-.23l-4.74-7.63a.18.18,0,0,0-.21-.07Z" transform="translate(-4.08 -2.98)"/><path d="M134.45,555.25a.18.18,0,0,1,0,.23H134l-4.52-7.76v-.17a.18.18,0,0,1,.21.07Z" transform="translate(-4.08 -2.98)"/><path class="cls-2" d="M134,555.48h.4a.13.13,0,0,1-.09,0l-.26,0Z" transform="translate(-4.08 -2.98)"/><path d="M134.07,555.56l-6.47,1.09a.18.18,0,0,1-.2-.11.14.14,0,0,1,0-.11l2-8.75a.12.12,0,0,1,.05-.08l.07.12v7.76H134Z" transform="translate(-4.08 -2.98)"/><polygon points="125.42 544.74 129.94 552.5 125.42 552.5 125.42 544.74"/><path class="cls-2" d="M134,458.53l-.17.16-.11-.19Z" transform="translate(-4.08 -2.98)"/><path class="cls-1" d="M129.5,461.25h0l-1.08-1.8a.82.82,0,0,1-.1-.24Z" transform="translate(-4.08 -2.98)"/><path class="cls-2" d="M129.5,547.55v.17l-.07-.12A.12.12,0,0,1,129.5,547.55Z" transform="translate(-4.08 -2.98)"/><path d="M129.5,545.72v1.83a.12.12,0,0,0-.07.05l-1-1.74.87-.5Z" transform="translate(-4.08 -2.98)"/><rect x="343.56" y="94.18" width="5.66" height="4.97" transform="translate(462.23 -245.37) rotate(93.89)"/><rect x="263.16" y="132.18" width="5" height="4.32" transform="matrix(1, -0.07, 0.07, 1, -12.57, 15.33)"/><rect x="271.11" y="136.89" width="59.4" height="3.27"/></g><g id="Layer_6" data-name="Layer 6"><rect x="149.05" y="91.25" width="109" height="25.1"/><rect x="-47.95" y="221.45" width="282.59" height="25.1" transform="translate(-160.06 194.86) rotate(-60)"/><rect x="-54.05" y="452.95" width="295.93" height="33.81" transform="matrix(-0.5, -0.87, 0.87, -0.5, -270.1, 783.14)"/><rect x="163.19" y="570.33" width="293.06" height="30.66" transform="translate(615.36 1168.34) rotate(180)"/><rect x="377.61" y="445.28" width="281.84" height="29.26" transform="translate(-143.11 676.04) rotate(-60)"/><rect x="346.71" y="95.2" width="109.12" height="24.14" transform="translate(798.46 211.56) rotate(180)"/><rect x="363.25" y="207.54" width="297.92" height="34.59" transform="translate(569.52 777.85) rotate(-120)"/><rect class="cls-3" x="299.55" y="53.2" width="45.57" height="5.07" transform="translate(8.06 156.61) rotate(-28.32)"/><rect class="cls-3" x="261.71" y="53.2" width="45.57" height="5.07" transform="translate(504.41 236.79) rotate(-151.68)"/><rect class="cls-8" x="458.59" y="448.52" width="21.67" height="16.17"/></g><g id="Layer_5" data-name="Layer 5"><rect class="cls-3" x="188.92" y="551.72" width="228.16" height="8.8"/><path d="M172.75,571h1v7.21h3.46v.87h-4.5Z" transform="translate(-4.08 -2.98)"/><path d="M183.46,576.12a2.84,2.84,0,0,1-2.89,3.09,2.76,2.76,0,0,1-2.78-3,2.83,2.83,0,0,1,2.88-3.08A2.75,2.75,0,0,1,183.46,576.12Zm-4.6.06c0,1.27.73,2.23,1.76,2.23s1.76-.94,1.76-2.25c0-1-.49-2.23-1.74-2.23S178.86,575.08,178.86,576.18Z" transform="translate(-4.08 -2.98)"/><path d="M184.8,575.08c0-.68,0-1.27-.05-1.81h.92l0,1.14h0a1.73,1.73,0,0,1,1.6-1.27,1.32,1.32,0,0,1,.3,0v1a1.28,1.28,0,0,0-.36,0,1.48,1.48,0,0,0-1.41,1.36,2.38,2.38,0,0,0,0,.49v3.09h-1Z" transform="translate(-4.08 -2.98)"/><path d="M189.19,576.36a1.86,1.86,0,0,0,2,2,3.83,3.83,0,0,0,1.61-.3l.18.75a4.72,4.72,0,0,1-1.94.36,2.69,2.69,0,0,1-2.85-2.92c0-1.75,1-3.13,2.72-3.13a2.45,2.45,0,0,1,2.4,2.73,4.68,4.68,0,0,1,0,.49Zm3.09-.75a1.5,1.5,0,0,0-1.46-1.72,1.75,1.75,0,0,0-1.62,1.72Z" transform="translate(-4.08 -2.98)"/><path d="M194.61,574.84c0-.6,0-1.09-.05-1.57h.93l0,.93h0a2,2,0,0,1,1.82-1.06A1.72,1.72,0,0,1,199,574.3h0a2.46,2.46,0,0,1,.65-.76,2,2,0,0,1,1.28-.4c.77,0,1.91.5,1.91,2.52v3.41h-1v-3.28c0-1.12-.41-1.79-1.26-1.79a1.36,1.36,0,0,0-1.25,1,1.64,1.64,0,0,0-.08.53v3.58h-1v-3.48c0-.92-.41-1.59-1.22-1.59a1.45,1.45,0,0,0-1.3,1.06,1.4,1.4,0,0,0-.09.51v3.5h-1Z" transform="translate(-4.08 -2.98)"/><path d="M208.34,571.64a.62.62,0,0,1-.67.65.63.63,0,0,1-.64-.65.65.65,0,0,1,.66-.66A.63.63,0,0,1,208.34,571.64Zm-1.18,7.43v-5.8h1.06v5.8Z" transform="translate(-4.08 -2.98)"/><path d="M210,575.16c0-.74,0-1.34-.05-1.89h1l0,1h0a2.31,2.31,0,0,1,2.07-1.12c1.4,0,2.45,1.18,2.45,3,0,2.08-1.27,3.12-2.63,3.12a2,2,0,0,1-1.79-.92h0v3.16H210Zm1.05,1.55a2.74,2.74,0,0,0,0,.43,1.64,1.64,0,0,0,1.59,1.24c1.11,0,1.76-.91,1.76-2.25,0-1.16-.61-2.15-1.73-2.15a1.67,1.67,0,0,0-1.59,1.3,1.61,1.61,0,0,0-.07.43Z" transform="translate(-4.08 -2.98)"/><path d="M216.66,578a2.69,2.69,0,0,0,1.39.42c.76,0,1.12-.38,1.12-.86s-.3-.78-1.08-1.07c-1-.37-1.53-.94-1.53-1.64a1.78,1.78,0,0,1,2-1.7,2.81,2.81,0,0,1,1.43.36l-.26.76a2.32,2.32,0,0,0-1.19-.33c-.63,0-1,.36-1,.79s.34.7,1.1,1c1,.39,1.52.89,1.52,1.75,0,1-.79,1.74-2.17,1.74a3.33,3.33,0,0,1-1.63-.39Z" transform="translate(-4.08 -2.98)"/><path d="M226.41,577.49c0,.6,0,1.13.05,1.58h-.94l-.06-.94h0a2.21,2.21,0,0,1-1.92,1.08c-.91,0-2-.51-2-2.55v-3.39h1v3.21c0,1.11.34,1.85,1.3,1.85a1.53,1.53,0,0,0,1.39-1,1.57,1.57,0,0,0,.09-.54v-3.56h1.06Z" transform="translate(-4.08 -2.98)"/><path d="M228.16,574.84c0-.6,0-1.09,0-1.57H229l.05.93h0a2,2,0,0,1,1.83-1.06,1.71,1.71,0,0,1,1.64,1.16h0a2.46,2.46,0,0,1,.65-.76,2,2,0,0,1,1.28-.4c.77,0,1.91.5,1.91,2.52v3.41h-1v-3.28c0-1.12-.41-1.79-1.26-1.79a1.36,1.36,0,0,0-1.25,1,1.64,1.64,0,0,0-.08.53v3.58h-1v-3.48c0-.92-.41-1.59-1.21-1.59a1.45,1.45,0,0,0-1.31,1.06,1.4,1.4,0,0,0-.09.51v3.5h-1Z" transform="translate(-4.08 -2.98)"/><path class="cls-3" d="M167.74,577h8.47a6.06,6.06,0,0,1,6.3,5.88,5,5,0,0,1-2.27,4.31v.07c2.17,1.54,3.08,3,3.08,5.18,0,2.91-2.31,5.57-6.3,5.57h-9.28ZM177,597a4.65,4.65,0,0,0,5-4.59c0-1.82-1-3.64-3.39-5v-.28a4.6,4.6,0,0,0,2.59-4.27,4.94,4.94,0,0,0-5-4.9H169v19Zm-5.46-18.56h5.67l.63.18h-6.3Zm0,.67h7.28l0,0,.28.21h-7.52Zm0,.7h8.08l.14.17h-8.22Zm0,.66h3.74a3,3,0,0,1,3.33,2.91c0,1.75-1.37,2.94-3.33,2.94h-3.74Zm0,6.27h7l-.24.17h-6.79Zm0,.7h6.61l.25.17h-6.86Zm0,.7h7.59l.18.14h-7.77Zm0,.59H176a3,3,0,0,1,3.25,2.84c0,1.72-1.29,2.8-3.25,2.8h-4.41Zm0,6.31h9.17l-.18.17h-9Zm0,.7H180l-.24.17h-8.19Zm0,.7h6.93l-1.47.17h-5.46Zm3.74-11.1a1.95,1.95,0,1,0,0-3.89h-2.45v3.89Zm.67,8a1.77,1.77,0,0,0,2-1.82,1.84,1.84,0,0,0-2-1.85h-3.12v3.67Zm4.23-12.88.07.17h-2.8l-.38-.17Zm-2.55,5.53h1.89l-.21.18h-1.89Zm.17,8.33h3.33l-.07.14h-3.54Zm2.14-5.57.17.18h-1.92l-.28-.18Zm-1.86-7.59h2.42l.07.17h-2.31Zm.25,4.13h1.75l-.14.17h-1.79Zm.24-3.43h2.17v.14h-2.1Zm.18,11.76h2.69l-.07.18h-2.8Zm0-9h1.71l-.1.18h-1.72Zm1.82,4.84.14.17h-1.82l-.18-.17Zm-1.72-6.94h2v.18h-1.92Zm.07,1.4h1.79l-.07.18h-1.79Zm0-.7h1.85v.18H179Zm.28,9.7h2.38l-.07.18h-2.42Zm1.75-2.76.1.17h-1.78l-.11-.17Zm-1.51,2.06h2.17v.18h-2.2Zm0-1.36h1.86l.07.17h-1.89Zm.07.66h2v.18h-2Z" transform="translate(-4.08 -2.98)"/><path class="cls-3" d="M185.8,577h13.9v4.55H191v3.78H199v4.49H191v3.78h9.13V598H185.8Zm13,20v-2.45h-9.14v-5.75h8.09v-2.52h-8.09v-5.74h8.75V578H187.1v19Zm-11.06-.6h10.71v.18H187.55Zm-.14-18h10.46v.18H187.76Zm.7.7h9.76v.18h-9.59Zm.17,16.56h10v.18H188.29Zm.53-15.86h9.06v.18h-8.89ZM189.2,595h9.24v.18H189Zm.45-8.26h7.74v.17h-7.74Zm0,.7h7.74v.17h-7.74Zm0,.7h7.74v.17h-7.74Z" transform="translate(-4.08 -2.98)"/><path class="cls-3" d="M202.57,577h13.89v4.55h-8.75v3.78h8.09v4.49h-8.09v3.78h9.14V598H202.57Zm13,20v-2.45h-9.13v-5.75h8.08v-2.52h-8.08v-5.74h8.75V578H203.86v19Zm-11.06-.6H215.2v.18H204.32Zm-.14-18h10.47v.18H204.53Zm.7.7h9.77v.18h-9.59Zm.18,16.56h10v.18H205.05Zm.52-15.86h9.07v.18h-8.89ZM206,595h9.24v.18h-9.45Zm.46-8.26h7.73v.17h-7.73Zm0,.7h7.73v.17h-7.73Zm0,.7h7.73v.17h-7.73Z" transform="translate(-4.08 -2.98)"/><path class="cls-3" d="M219.33,577h5.15v8.26h8.22V577h5.11v21H232.7v-8.3h-8.22V598h-5.15Zm3.85,20v-8.3H234V597h2.52V578H234v8.27H223.18V578h-2.55v19ZM221,578.3h1.85v.17H221Zm0,.7h1.85v.17H221Zm0,.7h1.85v.17H221Zm0,.7h1.85v.17H221Zm0,.7h1.85v.17H221Zm0,.7h1.85V582H221Zm0,.7h1.85v.17H221Zm0,.7h1.85v.17H221Zm0,.7h1.85v.17H221Zm0,.7h1.85v.17H221Zm0,.7h1.85v.17H221Zm0,.7h1.85v.17H221Zm0,.7h15.19v.18H221Zm0,.7h15.19v.18H221Zm0,.7h15.19v.17H221Zm13.33-9.8h1.86v.17h-1.86Zm0,.7h1.86v.17h-1.86Zm0,.7h1.86v.17h-1.86Zm0,.7h1.86v.17h-1.86Zm0,.7h1.86v.17h-1.86Zm0,.7h1.86V582h-1.86Zm0,.7h1.86v.17h-1.86Zm0,.7h1.86v.17h-1.86Zm0,.7h1.86v.17h-1.86Zm0,.7h1.86v.17h-1.86Zm0,.7h1.86v.17h-1.86Zm0,.7h1.86v.17h-1.86Z" transform="translate(-4.08 -2.98)"/><path class="cls-3" d="M241.17,577h5.15v21h-5.15ZM245,597V578h-2.55v19Zm-2.2-18.73h1.85v.17h-1.85Zm0,.7h1.85v.17h-1.85Zm0,.7h1.85v.17h-1.85Zm0,.7h1.85v.17h-1.85Zm0,.7h1.85v.17h-1.85Zm0,.7h1.85V582h-1.85Zm0,.7h1.85v.17h-1.85Zm0,.7h1.85v.17h-1.85Zm0,.7h1.85v.17h-1.85Zm0,.7h1.85v.17h-1.85Zm0,.7h1.85v.17h-1.85Zm0,.7h1.85v.17h-1.85Zm0,.7h1.85v.18h-1.85Zm0,.7h1.85v.18h-1.85Zm0,.7h1.85v.17h-1.85Z" transform="translate(-4.08 -2.98)"/><path class="cls-3" d="M248.35,577h5.35l4.24,10.12L262.17,577h5.36l-9.28,21.71h-.63Zm17.43,1h-2.66l-4.9,11.69h-.53L252.76,578H250.1l7.84,18.31Zm-15.16.39h1.89l.07.17h-1.85Zm.28.7h1.89l.07.17H251Zm.32.7h1.89l.07.17h-1.86Zm.28.7h1.89l.07.17H251.6Zm.31.7h1.89l.07.17h-1.85Zm.32.7H254l.07.17h-1.82Zm.28.7h1.89l.07.17h-1.86Zm.31.7h1.86l.07.17h-1.82Zm.32.7h1.85l.07.17h-1.82Zm.28.7h1.85l.07.17h-1.82Zm.31.7h1.86l.07.17h-1.82Zm.28.7h1.86l.07.18H254Zm.32.7h1.85l.07.17h-1.82Zm.28.7h1.85l.07.17h-1.82Zm.31.7h1.82l.07.17h-1.78Zm.32.7h1.78l.07.17h-1.75Zm.28.7h1.82l.07.18h-1.79Zm.31.7h1.79l.07.18h-1.75Zm.28.7h1.82l.07.18h-1.78Zm.32.7h1.78l.07.17h-1.75Zm.31.7h1.75l.07.17h-1.71Zm2,.7.07.18H257l-.11-.18Zm0,.7-.11.18h-1.19l-.1-.18Zm-.32.7-.1.18h-.56l-.11-.18Zm-.28.7-.07.14-.07-.14Z" transform="translate(-4.08 -2.98)"/><path class="cls-3" d="M269.56,577h13.89v4.55H274.7v3.78h8.09v4.49H274.7v3.78h9.14V598H269.56Zm13,20v-2.45h-9.13v-5.75h8.08v-2.52h-8.08v-5.74h8.75V578H270.85v19Zm-11.06-.6h10.71v.18H271.31Zm-.14-18h10.47v.18H271.52Zm.7.7h9.77v.18h-9.59Zm.18,16.56h10v.18H272Zm.52-15.86h9.07v.18h-8.89ZM273,595h9.24v.18h-9.45Zm.46-8.26h7.73v.17h-7.73Zm0,.7h7.73v.17h-7.73Zm0,.7h7.73v.17h-7.73Z" transform="translate(-4.08 -2.98)"/><path class="cls-3" d="M295.24,577H304c4.52,0,7.46,2.73,7.46,6.69,0,3.67-1.86,5.74-5,6.51l5.67,7.81h-6.44l-5.36-7.84V598h-5.15Zm3.86,20V589.5h2.31l5.14,7.53H310l-5.25-7.25v-.32c3.57-.42,5.42-2.2,5.42-5.56,0-3.61-2.66-5.92-6.16-5.92h-7.49v19Zm0-16.63h5.28a3.27,3.27,0,0,1,3.36,3.29,3.23,3.23,0,0,1-3.22,3.39H299.1Zm0-2H304l1.65.17h-6.55Zm0,.7H307l.28.17h-8.16Zm0,.7h8.93l.17.17h-9.1Zm0,7.7h9.45l-.17.17h-9.28Zm0,.7h8.54l-.31.17h-8.23Zm0,.7H306l-.91.17h-5.92Zm5.39-2.77a2.39,2.39,0,0,0-.14-4.72h-4v4.72Zm-2.66,3.47h2.49v.18H302Zm.46.7h2.31l.17.18h-2.38Zm.49.7h2.34l.14.18h-2.38Zm.45.7h2.38l.18.17h-2.45Zm2.91.7.14.17h-2.45l-.11-.17Zm.49.7.17.18h-2.52l-.1-.18Zm.52.7.14.18H304.8l-.1-.18Zm.49.7.18.18h-2.56l-.1-.18Zm.53.7.14.18h-2.56l-.1-.18Zm.52-14.7.14.17h-2.45l-.38-.17Zm0,15.4.17.18h-2.59l-.1-.18Zm-2.1-9.1h2.55l-.14.17h-2.69Zm2.62,9.8.11.18h-2.56l-.1-.18Zm0-15.4.07.17h-2l-.25-.17Zm-1.86,4.9h2.17l-.1.18h-2.24Zm.25-4.2h1.92l.07.17h-1.89Zm.17,3.5h2l-.07.17h-2Zm.18-2.8h1.78v.17H308Zm0,2.1h1.82v.17h-1.85Zm.11-1.4h1.75v.17h-1.75Zm0,.7h1.75v.17h-1.75Z" transform="translate(-4.08 -2.98)"/><path class="cls-3" d="M325.52,576.3a11.21,11.21,0,1,1-11.3,11.2A11,11,0,0,1,325.52,576.3Zm0,21.36a10.19,10.19,0,1,0-10-10.16A9.85,9.85,0,0,0,325.52,597.66Zm-9.62-10.93h1.89l0,.18h-1.89Zm0,.7h1.89v.18h-1.89Zm0,.7h1.89l0,.18H315.9ZM316,586h1.92l-.07.18h-1.89Zm0,2.8h1.89l.07.18H316Zm.14-3.5h2l-.07.18H316Zm0,4.21H318l.07.17h-1.92Zm.21-4.91h2l-.07.18h-2Zm.21-.7h2.1l-.11.18h-2Zm.28-.7h2.2l-.14.18h-2.13Zm.35-.7h2.38l-.14.18H317Zm.45-.7h2.59l-.21.18H317.4Zm.49-.7H321l-.24.18h-2.84Zm7.49-.94a7.1,7.1,0,0,1,7.42,7.31,7.42,7.42,0,1,1-14.84,0A7.09,7.09,0,0,1,325.52,580.19Zm-6.82.24h3.67l-.45.18h-3.4Zm.8-.7h12.08l.17.18h-4.83l-1.4-.11-1.29.11h-5Zm6,14.11c3.71,0,6.09-2.8,6.09-6.34a6,6,0,0,0-6.09-6.33c-3.74,0-6.09,2.8-6.09,6.33S321.78,593.84,325.52,593.84Zm-5-14.81h10l.21.18h-10.5Zm1.43-.7h7.14l.46.18H321.5Zm3.57-.66,1.86.14h-3.57Zm6.83,2.76,0,0,.21.21h-3.39l-.39-.18Zm.59.7.18.18h-2.8l-.25-.18Zm.53.7.14.18h-2.49l-.21-.18Zm.42.7.1.18h-2.27l-.18-.18Zm-1.82.7h2.17l.07.18h-2.14Zm.38.7h2.07l.07.18h-2Zm.32.7h2l.07.18h-2Zm.21.7h2l.07.18h-2Zm.07,4.21H335l0,.17h-2Zm.1-3.51h1.93l0,.18h-1.92Zm0,2.8h1.92L335,589h-1.89Zm.07-.7h1.89v.18h-1.93Zm0-1.4h1.89v.18h-1.89Zm0,.7h1.89v.18h-1.89Z" transform="translate(-4.08 -2.98)"/><path class="cls-3" d="M340.39,577h8.48a6.06,6.06,0,0,1,6.3,5.88,5,5,0,0,1-2.28,4.31v.07c2.17,1.54,3.08,3,3.08,5.18,0,2.91-2.31,5.57-6.3,5.57h-9.28Zm9.28,20a4.65,4.65,0,0,0,5-4.59c0-1.82-1-3.64-3.4-5v-.28a4.6,4.6,0,0,0,2.59-4.27,4.94,4.94,0,0,0-5-4.9h-7.18v19Zm-5.46-18.56h5.67l.63.18h-6.3Zm0,.67h7.28l0,0,.28.21h-7.53Zm0,.7h8.09l.14.17h-8.23Zm0,.66H348a3,3,0,0,1,3.32,2.91c0,1.75-1.36,2.94-3.32,2.94h-3.75Zm0,6.27h7l-.25.17h-6.79Zm0,.7h6.62l.24.17h-6.86Zm0,.7h7.6l.17.14h-7.77Zm0,.59h4.41a3,3,0,0,1,3.26,2.84c0,1.72-1.3,2.8-3.26,2.8h-4.41Zm0,6.31h9.17l-.17.17h-9Zm0,.7h8.44l-.25.17h-8.19Zm0,.7h6.93l-1.47.17h-5.46Zm3.75-11.1a1.95,1.95,0,1,0,0-3.89h-2.45v3.89Zm.66,8a1.77,1.77,0,0,0,2-1.82,1.84,1.84,0,0,0-2-1.85h-3.11v3.67Zm4.24-12.88.07.17h-2.8l-.39-.17Zm-2.56,5.53h1.89l-.21.18h-1.89Zm.18,8.33h3.32l-.07.14H350.2Zm2.13-5.57.18.18h-1.93l-.28-.18Zm-1.85-7.59h2.41l.07.17h-2.31Zm.24,4.13h1.75l-.14.17h-1.78Zm.25-3.43h2.17v.14h-2.1Zm.17,11.76h2.7l-.07.18h-2.8Zm0-9h1.72l-.11.18h-1.71Zm1.82,4.84.14.17h-1.82l-.17-.17Zm-1.71-6.94h2v.18h-1.93Zm.07,1.4h1.78l-.07.18h-1.78Zm0-.7h1.86v.18h-1.86Zm.28,9.7h2.38l-.07.18h-2.41Zm1.75-2.76.11.17H352l-.1-.17Zm-1.5,2.06h2.17v.18h-2.21Zm0-1.36H354l.07.17h-1.89Zm.07.66h2v.18h-2Z" transform="translate(-4.08 -2.98)"/><path class="cls-3" d="M369.62,576.3a11.21,11.21,0,1,1-11.3,11.2A11,11,0,0,1,369.62,576.3Zm0,21.36a10.19,10.19,0,1,0-10-10.16A9.85,9.85,0,0,0,369.62,597.66ZM360,586.73h1.89l0,.18H360Zm0,.7h1.89v.18H360Zm0,.7h1.89l0,.18H360Zm.11-2.1H362l-.07.18H360Zm0,2.8h1.89l.07.18h-1.92Zm.14-3.5h2l-.07.18h-1.93Zm0,4.21h1.93l.07.17h-1.92Zm.22-4.91h2l-.07.18h-2Zm.21-.7h2.1l-.11.18h-2Zm.27-.7H363l-.14.18h-2.13Zm.36-.7h2.38l-.14.18h-2.35Zm.45-.7h2.59L364,582H361.5Zm.49-.7h2.94l-.24.18H362Zm7.49-.94A7.1,7.1,0,0,1,377,587.5a7.42,7.42,0,1,1-14.84,0A7.09,7.09,0,0,1,369.62,580.19Zm-6.82.24h3.67l-.45.18h-3.4Zm.8-.7h12.08l.17.18H371l-1.4-.11-1.29.11h-5Zm6,14.11c3.71,0,6.09-2.8,6.09-6.34a6,6,0,0,0-6.09-6.33c-3.74,0-6.09,2.8-6.09,6.33S365.88,593.84,369.62,593.84Zm-5-14.81h10l.21.18h-10.5Zm1.43-.7h7.14l.46.18h-8Zm3.57-.66,1.86.14h-3.57Zm6.83,2.76,0,0,.21.21h-3.39l-.39-.18Zm.59.7.18.18h-2.8l-.25-.18Zm.53.7.14.18h-2.49l-.21-.18Zm.42.7.1.18h-2.27l-.18-.18Zm-1.82.7h2.17l.07.18h-2.14Zm.38.7h2.07l.07.18h-2Zm.32.7h2l.07.18h-2Zm.21.7h2l.07.18h-2Zm.07,4.21h1.92l0,.17h-2Zm.1-3.51h1.93l0,.18h-1.92Zm0,2.8h1.92l-.07.18h-1.89Zm.07-.7h1.89v.18h-1.93Zm0-1.4h1.89v.18h-1.89Zm0,.7h1.89v.18h-1.89Z" transform="translate(-4.08 -2.98)"/><path class="cls-3" d="M386.84,581.55h-4.72V577h14.63v4.55H392V598h-5.15ZM390.69,597V580.57h4.76V578h-12v2.59h4.73V597Zm-6.93-18.52H395.1v.17H383.76Zm0,.7H395.1v.17H383.76Zm0,.7H395.1v.17H383.76Z" transform="translate(-4.08 -2.98)"/><path class="cls-3" d="M399.12,577h5.15v21h-5.15ZM403,597V578h-2.55v19Zm-2.2-18.73h1.85v.17h-1.85Zm0,.7h1.85v.17h-1.85Zm0,.7h1.85v.17h-1.85Zm0,.7h1.85v.17h-1.85Zm0,.7h1.85v.17h-1.85Zm0,.7h1.85V582h-1.85Zm0,.7h1.85v.17h-1.85Zm0,.7h1.85v.17h-1.85Zm0,.7h1.85v.17h-1.85Zm0,.7h1.85v.17h-1.85Zm0,.7h1.85v.17h-1.85Zm0,.7h1.85v.17h-1.85Zm0,.7h1.85v.18h-1.85Zm0,.7h1.85v.18h-1.85Zm0,.7h1.85v.17h-1.85Z" transform="translate(-4.08 -2.98)"/><path class="cls-3" d="M419.22,576.3a11.73,11.73,0,0,1,9,3.85l-3.53,3.36a7.82,7.82,0,0,0-5.46-2.34,6.34,6.34,0,0,0,0,12.67,7.82,7.82,0,0,0,5.46-2.34l3.43,3.36a12,12,0,0,1-8.89,3.85,11.21,11.21,0,1,1,0-22.41Zm0,21.43a10.2,10.2,0,0,0,7.35-2.8l-2-2a8.28,8.28,0,0,1-5.35,1.92,7.32,7.32,0,1,1,0-14.63,9,9,0,0,1,5.42,1.89l2-1.93a10.28,10.28,0,1,0-7.42,17.58Zm-9.7-11h1.89l0,.18h-1.9Zm0,.7h1.9v.18h-1.9Zm0,.7h1.9l0,.18h-1.89Zm.11-2.1h1.92l-.07.18h-1.89Zm0,2.8h1.89l.07.18h-1.92Zm.14-3.5h2l-.08.18h-1.92Zm0,4.21h1.92l.08.17h-1.93Zm.21-4.91h2l-.08.18h-2Zm0,5.61h2l.08.17h-2Zm.25-6.31h2.1l-.1.18h-2Zm0,7h2l.1.17h-2.1Zm.32-7.71h2.2l-.14.18h-2.13Zm-.07,8.4h2.17l.14.18h-2.21Zm.42-9.1h2.38l-.14.18H410.6Zm-.07,9.8H413l.17.18h-2.37Zm.53-10.5h2.58l-.21.18H411ZM411.06,593h2.52l.17.17h-2.58Zm.6-11.91h2.93l-.24.18h-2.84Zm-.08,12.61h2.8l.21.17h-2.9Zm.74-13.31H416l-.46.18h-3.4Zm3.29,14,.35.17h-3.61l-.17-.17Zm-2.49-14.71h6.1v.07l-1.37.11h-5Zm4.94,15.41a10.79,10.79,0,0,1,1.16.07v.1h-6l-.21-.17ZM414.14,579h5.08v.18h-5.36Zm5.08,16.81V596h-5l-.25-.17Zm-3.64-17.51h3.64v.18h-4.1Zm3.64,18.21v.17h-3.57l-.46-.17Zm0-18.87v.14h-1.79A7.35,7.35,0,0,1,419.22,577.67Zm0,19.57v.1h-.07l-1.58-.1Z" transform="translate(-4.08 -2.98)"/><path class="cls-3" d="M435.25,591.84a2.18,2.18,0,0,0,2.17,2.21,1.85,1.85,0,0,0,2.1-1.82c0-1.57-2.07-2-3.79-2.63-3.53-1.26-5.49-2.9-5.49-6.51a7,7,0,0,1,7.14-6.79c4.66,0,6.86,3,7.14,6.86h-4.83a2.19,2.19,0,0,0-4.38-.14c0,1.58,1.93,1.86,3.72,2.38,3.74,1.12,5.49,3.22,5.49,6.52a7,7,0,0,1-7.1,6.79c-4.59,0-7.18-3.08-7.18-6.87Zm2.17,5.89a5.89,5.89,0,0,0,5.91-5.81c0-3.54-2.1-4.84-5.32-5.75-2.06-.59-3.85-1.08-3.85-3.15a3,3,0,0,1,3.26-3,3.11,3.11,0,0,1,3.22,2.17h2.62c-.21-2.06-1.75-4.9-5.84-4.9a6,6,0,0,0-6,5.81c0,2.59,1,4.24,4.83,5.61,2,.73,4.41,1.26,4.41,3.53,0,1.85-1.61,2.8-3.25,2.8a3.2,3.2,0,0,1-3.23-2.2h-2.73C431.53,595.45,434.09,597.73,437.42,597.73Zm-5.64-15h2v.17h-2Zm0,.7h2l0,.17h-2.06Zm.14-1.44h2l-.07.21h-2Zm-.07,2.17H434l.07.18h-2.14Zm.17.7h2.35l0,0,.21.21h-2.48Zm.07-3.57h2.14l-.11.18h-2.06Zm.35-.73h2.42l-.25.21h-2.27Zm-.07,5h2.84l.28.17h-3Zm.53-5.74H436l-.39.17h-2.83Zm0,6.44h4l.66.18h-4.51Zm.63-7.14h3.86v.17h-4.07Zm.18,7.84h5.5l.52.21h-5.64Zm.87-8.58h2.81v.18h-3.09Zm6.13,9.31.21.18h-5.57l-.28-.18Zm-4.06-10h.74v.18h-1.58Zm5,10.72.17.2h-4.8l-.52-.2Zm-4.27,7.17h4l-.18.18h-3.81Zm0,.7h3.15l-.25.18h-2.9Zm0,.74h1.78l-.66.17h-1.12Zm4.86-7.88.07.18H439l-.39-.18Zm-2.73,5.71H442l-.11.14,0,.07h-2.77Zm3.05-5,.07.18h-2.56l-.21-.18Zm-2.24,4.31h2.06l-.1.17h-2.14Zm.17-3.58h2.31l.07.18h-2.27Zm.28,2.84h1.93l-.07.21h-2Zm.07-2.13H443v.17h-2Zm.11,1.43h1.92l0,.18H441Zm0-.7h2l0,.18H441Z" transform="translate(-4.08 -2.98)"/></g></svg>